<svg xmlns="http://www.w3.org/2000/svg" viewBox="0 0 375 812"><defs><style>.cls-1{fill:#f5faff;}</style></defs><g id="Logo_Icon" data-name="Logo Icon"><path class="cls-1" d="M282.81,221.65h-5.05a44.21,44.21,0,0,0-13.59-79.72l8.32-15.79a3.8,3.8,0,0,0-1.61-5.13L251,111.38a3.6,3.6,0,0,0-2.86-.12,4.06,4.06,0,0,0-2.17,2L222.36,158a7.62,7.62,0,0,0,3.23,10.26l-3.22,6.62,13.28,6.43,3.22-6.61a7.05,7.05,0,0,0,3.06.7,7.87,7.87,0,0,0,7-4.55l8-15.18a29.43,29.43,0,0,1-3.62,58.64c-7.41,0-17-2.82-22.12-7.38v-3.68a3.68,3.68,0,0,1,3.69-3.69h18.43v-7.38h-59v7.38h18.44a3.68,3.68,0,0,1,3.69,3.69v18.43c-8.15,0-14.75-.77-14.75,7.38h95.87C297.56,220.88,291,221.65,282.81,221.65ZM257,120.84a5.16,5.16,0,0,0-2.37,2.42l-17,32-6.47-3.14a7.69,7.69,0,0,1,.39-1.46l16.2-30a4,4,0,0,1,2.18-2,3.61,3.61,0,0,1,2.85.11l4.28,2.07S257,120.82,257,120.84Z"/><g id="layer1"><path class="cls-1" d="M263,553.08c-2.42,3.43-7,4.78-12,3.31L202,541.7l-.08,0c-4.73-1.15-7.65-4.56-8.06-8.6s1.54-8.6,5.66-12.37l.07-.05,30.6-25.34,4.66-16.12a42.53,42.53,0,0,0,1.71-6.56,10.07,10.07,0,0,0-1.55-6.29,1.43,1.43,0,0,1,.15-1.56,1.39,1.39,0,0,1,1.48-.45l26.73,8a1.38,1.38,0,0,1,1,1.19,1.41,1.41,0,0,1-.71,1.39,10,10,0,0,0-4.66,4.48,39.24,39.24,0,0,0-2,6.2s0,0,0,0,0,.13-.06.21L252.52,502l10.84,36.63,0,.13C265.68,544.57,265.39,549.68,263,553.08Z"/></g><path class="cls-1" d="M355,384.39a9,9,0,0,0-12.58-1.84l-10.84,8.07a4.51,4.51,0,0,0-4.6-.76l-.74-1a11.27,11.27,0,0,0-15.73-2.3L299.17,395a11.26,11.26,0,0,0-2.3,15.73l.74,1a4.53,4.53,0,0,0-.59,4.64l-10.84,8.07A9,9,0,0,0,284.34,437l28,37.66A9,9,0,0,0,325,476.5l50-37.25v-28ZM300.47,408a6.78,6.78,0,0,1,1.38-9.43l11.33-8.43a6.78,6.78,0,0,1,9.43,1.38l.74,1a4.53,4.53,0,0,0-.6,4.64l-16.92,12.61a4.55,4.55,0,0,0-4.63-.78ZM361.3,440.3l-25.21,18.77a9,9,0,0,1-12.58-1.84L304.74,432a9,9,0,0,1,1.85-12.58l25.2-18.77a9,9,0,0,1,12.58,1.84l18.77,25.21A9,9,0,0,1,361.3,440.3Z"/><path class="cls-1" d="M343.8,430.29a.92.92,0,0,0-.19,1.28l5.65,7.58a.92.92,0,0,1-.18,1.28l-9.2,6.85a.92.92,0,0,1-1.28-.19L333,439.51a.91.91,0,0,0-1.28-.19L324.08,445a.9.9,0,0,1-1.27-.19l-6.85-9.2a.9.9,0,0,1,.19-1.27l7.58-5.65a.92.92,0,0,0,.19-1.28l-5.65-7.59a.91.91,0,0,1,.19-1.28l9.19-6.85a.92.92,0,0,1,1.28.19l5.65,7.59a.91.91,0,0,0,1.28.18l7.59-5.64a.92.92,0,0,1,1.28.18l6.85,9.2a.93.93,0,0,1-.19,1.28Z"/><g id="g3285"><path id="path3289" class="cls-1" d="M177,401.6l-9,5.94"/><path id="path3291" class="cls-1" d="M184.3,412.38l-9,5.94"/><path id="path3293" class="cls-1" d="M191.61,422.84l-9,5.94"/><path id="path3295" class="cls-1" d="M198.92,433.3l-9,5.94"/><path class="cls-1" d="M207.2,451a13,13,0,0,1-14.54,10.15,13.56,13.56,0,0,1-10.5-5.69l-29.52-42.27a25.92,25.92,0,0,0-4.1-5,11.75,11.75,0,0,0-6-2.57,1.33,1.33,0,0,1-1.08-1.39,1.29,1.29,0,0,1,.58-1l28.15-19.68a1.33,1.33,0,0,1,1.47,0,1.28,1.28,0,0,1,.58,1.33,11.82,11.82,0,0,0,.37,6.51,25.7,25.7,0,0,0,3.28,5.54l29.53,42.27A13.58,13.58,0,0,1,207.2,451Z"/></g><path class="cls-1" d="M371.09,690.85c-.53.52-1.4.12-2.29-.75C363.43,685,345.67,668,345,667.18s-.63-1.56-.36-1.81a4.4,4.4,0,0,0,0-6.37,4.81,4.81,0,0,0-6.62,0c-13.86,13.45-17.49,31-19.49,48-.07.62-.31.88-.87.93-20.41,2-41.95,3.3-57.3,17.92-15.19,14.81-16.56,35.55-18.6,55.22a1.18,1.18,0,0,1-1.14.86c-17.66,1.95-35.75,5.45-49.66,18.78a4.37,4.37,0,0,0,0,6.37,4.79,4.79,0,0,0,6.6,0c.43-.43.88-.83,1.33-1.23.67-.59,1.11-.7,2.07.23l6.13,5.89h13.47c-5.59-5.39-11.29-10.88-11.73-11.29-.87-.84-.27-1.42.12-1.62a58.82,58.82,0,0,1,7.38-3.09,2,2,0,0,1,2,.34c.44.45,12.17,11.72,16.26,15.66H246.2a129.93,129.93,0,0,0,3.91-21c.08-.69.22-1,.9-1,20.4-2,41.93-3.28,57.29-17.93,15.18-14.8,16.57-35.55,18.6-55.21,0-.54.32-.77,1-.84,16.59-1.82,33.58-5,47.13-16.37V689.57A4.78,4.78,0,0,0,371.09,690.85ZM239,801.79c-.09.43-.38,1.23-1,.54s-6.56-6.35-8.9-8.59c-.56-.52.06-1,.53-1.13,3.28-.6,6.66-1.07,10.08-1.47.55-.07,1,.16.9.77C240.17,795.27,239.67,798.58,239,801.79Zm16.48-21.26-3.25.3c-.84.08-1-.45-1-1.07.1-1,.2-2,.31-3,0-.38.28-1,1-.24.47.47,2,2,3,2.95C256.3,780,255.93,780.49,255.52,780.53ZM279.26,777c-3,.74-6.19,1.35-9.47,1.85a2.27,2.27,0,0,1-1.82-.6c-.59-.55-10.7-10.3-13.85-13.37a2.12,2.12,0,0,1-.72-2.35c.49-2.88,1.07-5.66,1.77-8.35.27-1,.88-.82,1.5-.32,0,0,22.1,21.35,22.72,21.91S279.64,776.91,279.26,777ZM298,768.82a42.21,42.21,0,0,1-6.52,3.92,1.59,1.59,0,0,1-2.15-.39L259.88,744a1.62,1.62,0,0,1-.3-1.69,39.18,39.18,0,0,1,4.15-6.45,1.37,1.37,0,0,1,1.47-.2s32,30.82,32.65,31.44A1.29,1.29,0,0,1,298,768.82Zm11.9-14.75a41.24,41.24,0,0,1-3.62,6.27,1.31,1.31,0,0,1-2,0L272,729.14c-.3-.28-.2-.77.28-1.1a45.08,45.08,0,0,1,6.82-3.7,2.12,2.12,0,0,1,2.5.56c1,.92,22.48,21.64,27.76,26.75A2.53,2.53,0,0,1,309.9,754.07Zm5.82-21.53q-.69,4.79-1.73,9.27c-.08.36-.45.92-1.12.3l-21.36-20.6c-.73-.72-.11-1,.28-1.11,2.92-.64,6-1.15,9.08-1.59a2.25,2.25,0,0,1,2.39.54c.85.81,9.05,8.72,11.76,11.31A2.83,2.83,0,0,1,315.72,732.54Zm1.51-12.72-2.62-2.53,2.89-.27C317.4,718,317.32,718.89,317.23,719.82Zm24.64-15c-3.28.67-6.67,1.18-10.1,1.64s-3.75,0-3.28-3.14,1-6.53,1.68-9.66a.63.63,0,0,1,1.12-.22C334,696,341.8,703.49,342.1,703.84A.56.56,0,0,1,341.87,704.79Zm19.1-6.58A52.61,52.61,0,0,1,355,701a3,3,0,0,1-2.91-.47c-.89-.7-12.72-12.2-17.06-16.42a3.75,3.75,0,0,1-.86-3.34,51.27,51.27,0,0,1,2.92-5.78,1.53,1.53,0,0,1,2.31-.18c4.84,4.64,20.66,19.85,21.73,21C362.4,697,361.56,697.9,361,698.21Z"/><path class="cls-1" d="M166,323.79l-22.33-24.87a11.93,11.93,0,1,0-17.75,15.95l22.33,24.87A11.93,11.93,0,1,0,166,323.79Zm-15.21-9.52c-1.68,3-5.67,6.53-9.64,8.69a2.79,2.79,0,0,1-3.43-.8c-2.09-2.28-6.45-7.19-8.86-9.91a8,8,0,0,1-2-5.78,8,8,0,0,1,8-7.55,8,8,0,0,1,6,2.64c.31.35,7.51,8.55,9.64,10.75A1.52,1.52,0,0,1,150.81,314.27Z"/><path class="cls-1" d="M185.9,310.13l-12.08-23.78a9.53,9.53,0,0,0-8.5-5.22,9.4,9.4,0,0,0-4.31,1,9.52,9.52,0,0,0-4.18,12.8l12.08,23.8a9.53,9.53,0,0,0,17-8.64ZM174.33,298.5c-1.18.43-2.53,1-3.94,1.6a27.8,27.8,0,0,0-4,2.23c-1.14.77-1.67.39-2.16-.56-1.3-2.53-3.31-6.56-4.22-8.39a5.89,5.89,0,0,1-.36-4.58,6,6,0,0,1,11-.85c1,1.86,3.16,6.12,4.35,8.51C175.55,297.49,175.22,298.17,174.33,298.5Z"/><path class="cls-1" d="M352.57,173a16.09,16.09,0,1,0-19.31,15.77v6.77h-6.44V202h6.44v6.44h6.44V202h6.44v-6.43H339.7v-6.77A16.09,16.09,0,0,0,352.57,173Zm-16.09,9.66a9.66,9.66,0,1,1,9.66-9.66A9.67,9.67,0,0,1,336.48,182.68Z"/><path class="cls-1" d="M202.49,73.31v6.44H214L201.7,92.08a16.14,16.14,0,1,0,4.55,4.55L218.58,84.3V95.84H225V73.31Zm-9.66,41.85a9.66,9.66,0,1,1,9.66-9.66A9.67,9.67,0,0,1,192.83,115.16Z"/><path class="cls-1" d="M93.09,712.14l-4.49,3.51a43.54,43.54,0,1,1-74.85,42.7L8.5,760.57a49.1,49.1,0,0,0,30.12,28.55q1.14.39,2.31.72c.9.25,1.8.48,2.7.67s1.7.37,2.55.5,1.73.28,2.59.36a49.23,49.23,0,0,0,44.32-79.23Z"/><path class="cls-1" d="M89.8,726.59a.31.31,0,0,0,0-.1A39,39,0,1,0,63,781.6l.24-.05a39,39,0,0,0,26.58-55Zm.65,27a37.2,37.2,0,0,1-30.4,26.74h0a37.26,37.26,0,0,1-27.11-6.57h0a37.25,37.25,0,0,1-14.14-40.37,36.39,36.39,0,0,1,1.66-4.67v0a35.9,35.9,0,0,1,3.6-6.49,34.91,34.91,0,0,1,2.36-3v0a37.26,37.26,0,0,1,17.29-11.27h0a37,37,0,0,1,21-.24c.37.1.74.21,1.1.33a37.28,37.28,0,0,1,26,33.1h0A37.29,37.29,0,0,1,90.45,753.58Z"/><path class="cls-1" d="M59.39,706.07s-13.12-1.93-24.52,5.55c0,0,8.57-5,12.62-3.88l.79.64a1.67,1.67,0,0,1-.39.4,3.62,3.62,0,0,0-.92.81c0,.17-.17.75-.17.75l-.42.34a1.11,1.11,0,0,0-.46.15c-.12.1-.31.1-.39.4a3.59,3.59,0,0,0-.11.71l-.16.75-.34.37-.66.18a2.1,2.1,0,0,1-.9-.25c-.22-.2-.16-.75-.16-.75l.86-.26s.13-.11-.06-.3,0-.61-.42-.63a3.57,3.57,0,0,0-1.16.32l-.77.26s-.52.68-.39.72a1.75,1.75,0,0,1,.41.35,1.3,1.3,0,0,1,0,.45,2.19,2.19,0,0,1-.4.59s-.19.18-.6,0-.76-.4-1-.56a1.31,1.31,0,0,0-.74-.35c-.28,0-.39.08-.47.19a5.36,5.36,0,0,1-1.13.38s-.34,0-.39.22a4.48,4.48,0,0,1-.48.75,2,2,0,0,1-1,.18,1.27,1.27,0,0,0-.77.11l-.48.56a4.07,4.07,0,0,0-.93.48,6.08,6.08,0,0,1-1.64.71,1.72,1.72,0,0,0-.82.6c-.22.31-.33.84-.5,1a2.79,2.79,0,0,0-.63.89,1.65,1.65,0,0,1-.68.79,4.52,4.52,0,0,1-.68.27A9.06,9.06,0,0,0,27,720a1.15,1.15,0,0,0-.59.63c0,.13.26.54.39.58a2.62,2.62,0,0,1,.48.27s-.15.7-.19.83-.47.7-.22.77a3.94,3.94,0,0,1,.63.28l.64.36.49.56.27.35a2.26,2.26,0,0,1-.31.47c-.13.11-.39.36-.5.28S28,725.35,28,725s0-.45-.24-.62-.67.05-.77-.08-.32-.18-.48-.46-.3.1-.15-.27.37-.5.34-.7-.19-.66-.36-.71,0,.38-.17,0-.3-.6-.45-.59-.32,0-.26-.21.31-.62.37-.83.29-.52.34-.7.51-1.15.51-1.15A23,23,0,0,0,24,722.19s.47.07.39.36a4.34,4.34,0,0,1-.18.87,4.41,4.41,0,0,0-.38,1.13c-.26.92-.09,1.22-.29,1.47a6,6,0,0,0-.64.94,3.35,3.35,0,0,0,0,1.47,1.72,1.72,0,0,0,.18.49c.12.22-.53.78.12.22s.9-.8.9-.8l.39-.26s.13-.46.67-.19.63.18.73.46-.45.74-.18.87,1.25,0,1.46.11a.74.74,0,0,1,.49.69c0,.44,0,1.06.21,1.24s0,.68,0,1.06.75.83.93.88a4.67,4.67,0,0,1,1.14.57c.2.17-.15.51.28.76s.28,1.19.28,1.19a2.84,2.84,0,0,1-.23,1c-.18.2-.24.62,0,.76l1,.46a.52.52,0,0,0,0,.87,11,11,0,0,1,1.27,1c.14.16-.58.51.18.66s1.48.24,1.75.62-.14.71.63,1.48l1.21,1.21c.2.18.68.25.36.91s-.54,1.08-1,1.27a12.81,12.81,0,0,0-1.46,1.2,1.28,1.28,0,0,0-.58,1.2,4.34,4.34,0,0,1,.16,1.41,4.57,4.57,0,0,1-.48,1.48l-.79.83s.48.69-.11,1a5.58,5.58,0,0,1-1.79.67,5,5,0,0,0-1.24.46s-.36,1.45-.49,1.72-2.11,2.19-1.79,2.84a1.57,1.57,0,0,1,0,1.55c-.21.31-.36.2-.56.46s-1-.22-.7.73.53,1.2.63,1.73a5.16,5.16,0,0,0,.2,1.24,7.6,7.6,0,0,0,.57,1.52c.31.45.7.81.59,1.21s.49,1.57-.35.58a7.74,7.74,0,0,1-1.12-1.54c-1-1.47-1.48-1.11-1.87-2s-.19,1.8-.47-1.37a9.94,9.94,0,0,0-.78-3.63c-.11-.71-.07,0-.47-1.62s0-.55-.4-1.66-.85.13-.72-1.63-.24-.68-.17-2.71.9-1.85.12-3.06-.84-.74-1-1.47a10.84,10.84,0,0,0-.33-1.89c-.47-1.87-1.55-2.85-.72-5.59s1-3.2,1-3.2a2.8,2.8,0,0,1-.15-3c.9-1.48.93-.91.9-1.48s-.23-.49-.51-1.26-.36-.71-.35-1.15.07-1.34.07-1.34l-.43.19s-13.9,35.24,20.77,50.77c0,0-7.85-4.16-8.07-6,0,0,.26-1.6.6-1.5s.8.5,1.43.21l1.39-.62-.11.71,1.16.14c1.72.2,1.67.38,2.34.29s1.73-1.19,1.86-.32-.56.31.12.88a4.16,4.16,0,0,0,2.29.45s2.45.88,2.78.69.45-.61.86-.41.47,1,.47,1l-1.59.39-1.56.59s-.66,0-.21.4a3.78,3.78,0,0,0,1.3.65c.58.25,1.73,1.78,2.27,1.19a11.5,11.5,0,0,1,1-1c.37-.35.43-.9,1-.73a5.42,5.42,0,0,1,1.16.51l-.84,1s1.06.2,1.49.33.32.83,1.1.4a1.68,1.68,0,0,1,1.48-.33,9,9,0,0,1,1.8.23,4.16,4.16,0,0,0,1,.46c.26.08,1.29,1.38,1.59,1.29a7,7,0,0,1,1.83.42s-5.31,2.69-14.31.34A37.73,37.73,0,0,0,83,771.1c16.75-16.35,16-43.58-7.27-59.55,0,0,17.23,12.54,17.12,32.4l-.27.29c-.37-.66-.45-.4-.63-1.38s.1-.72-.07-1.42-.21-.24-.47-1a4.06,4.06,0,0,0-.62-1.1,20.34,20.34,0,0,1-.44-2.08c-.16-.41-.91-.72-1.23-.9s0-.57-.32-.18.2,1.26.2,1.26l-.39,1.38a9.32,9.32,0,0,1,.06,1.78,6,6,0,0,1-.79,1.17s-.47,1-.86,1.06a19.76,19.76,0,0,1-2.47-.14,9.94,9.94,0,0,1-.58-1.55c-.18-.7-1.25-1.19-1.35-1.5s.48-.7.15-1.54.15-.51-.37-1.31L81.9,736s-1.4-1-1.13.05-.59,1.78-.19,2,.76-.07.89.81a5,5,0,0,0,.3,1.57c.19.33,0,1.47.27,1.66s1.3.36,1.09.77-.89.86-.34,1.2.57.62.94.64.15.13.82,0a4.1,4.1,0,0,1,1.37.11s.6.82.52,1.08-.74,1.65-.74,1.65l-1.18,1.25s-.64,2.6-1.08,2.48-1.26.85-1.56.95-.89,1.8-.89,1.8l-1,.73a10.27,10.27,0,0,0-.46,1.63,7.31,7.31,0,0,1-.59,2.44,3.43,3.43,0,0,1-1.5,1.06s.94,1.57.21,1.55a3.86,3.86,0,0,0-2,1c-.24.21-.3.75-.75.71s-1.26-.17-1.33.09l-.36,1.29-1.94,1.6-2,.91s-.09,1-.63.94a10,10,0,0,0-2.79.33,5.28,5.28,0,0,1-2.22.3c-.43-.12-.08,1.28-.43-.12a9.33,9.33,0,0,1-.27-2c-.22-1.54-.51-.51-.22-1.54s.12-.06.3-1,.33-.19.13-1.46-.21-.89-.71-1.78-1.2-.34-.46-1.33.17.05.75-1,.28-1.32,1.11-1.64,1.46-.24,1.57-1a5.45,5.45,0,0,0,.13-1.45c0-.48-.55-1.36-.56-1.65s-.06-.11-.36-1-.52-1.45-.52-1.45.34-1.85.53-2.54-.38.35.19-.69.86-1.71.86-1.71-1-1.22-1.59-1.29-.67.74-1.28-.08-.31-1.2-.52-1.45a1.11,1.11,0,0,0-1.23-.25,16.36,16.36,0,0,1-2.35.08,4,4,0,0,1-2.14-.32c-1-.29-2.33-.29-3-.94s-.91-.06-1-1,.22-.78-.44-1.43-.92-.35-.79-1.15.52-.51.11-1.37a7.91,7.91,0,0,0-.41-.86c-.65-1.29-1.24-.53-.65-1.29s.7-.18,1-1.21,1.42.86,1.06-1.47-.66-2,.64-3.26a11.34,11.34,0,0,1,2.83-1.8A5.26,5.26,0,0,1,57.13,725c.42-.16.24-.5,1-.19a2.92,2.92,0,0,0,2.37-.17,7.07,7.07,0,0,1,1.94-.94c.37,0,.15.13,1,.18a5.66,5.66,0,0,1,1.54.16c.51.14-.57,0,1,.17a8.45,8.45,0,0,1,1.54.16c.34.09.14.13.72.39s.85-1.06.58.25-1,1.75,0,2.13,0,.09,1,.38.72.39,1.17.79.6.82,1.38,1-.66,1,.77.22-.5-1.54,1.44-.8,2.07,1.23,2.46,1.15.38.3,1.36.11,1.07-.16,1.37.11.08,1,.64.36,1.18-.22.29-1-1.4-.3-1.38-1,1-.28,0-.74a6,6,0,0,1-1.51-.89c-.71-.48-1.77.34-1.81-.51s-1.87,0,0-.85,1.37-1.56,2.24-1,.38,1.32,1.12,1,2-.38,1.07-1.47-.22-.52-1.2-1.36-2.71,1.38-3.13.89-.6-.82-1-.75-.66,1-.94,1.69.36,1-.61.2,1.28.08-1-1.57-3.17-1.64-3.61-1.39-.93,0-1.27.2.54,1.08-.32.19a2,2,0,0,0-2.17-.24.77.77,0,0,0-.82-.05,2.35,2.35,0,0,1-1.93-.08c-.47-.31-1.69-.28-.4-1.22s.4-.45,2-.64,3.81.33,2-.63,1.15-.14-1-2.05-2.7-.3-2.16-1.91.32-1.77-.22-1.83-2.19-.15-2.81-.23-.09.62-1-.38-1.65-.09-.93-1a3.59,3.59,0,0,1,1.71-1.46c.86-.41,1.32-2.7,2.8-1.36s.86.9,2.22,1.37,2,.39,2.1.13-1.26-1.47-1.26-1.47-.57,0-.32-.18l.74-.63-.4-.58A59.22,59.22,0,0,0,59.39,706.07Z"/><path class="cls-1" d="M46.91,788.41l-.24.87L46.18,791l-5.92,21H24.79c-6.35-2.74-8.52-5-8.32-6.82.3-2.72,5.62-4.11,11.09-4.44a14.37,14.37,0,0,0,8.93-4l2.13-7.58.31-1.09,5.33.25,1.05.05Z"/><path class="cls-1" d="M57.22,812H37.58l6.05-21.49.63-2.23.16-.57.89.62,1.36.95,2.25,1.57-.15.52-2.29,8.15a12.37,12.37,0,0,0,5.06,8A52,52,0,0,1,57.22,812Z"/><path class="cls-1" d="M93.09,712.14l-4.49,3.51a43.54,43.54,0,1,1-74.85,42.7L8.5,760.57a49.1,49.1,0,0,0,30.12,28.55q1.14.39,2.31.72c.9.25,1.8.48,2.7.67s1.7.37,2.55.5,1.73.28,2.59.36a49.23,49.23,0,0,0,44.32-79.23Z"/><path class="cls-1" d="M89.8,726.59a.31.31,0,0,0,0-.1A39,39,0,1,0,63,781.6l.24-.05a39,39,0,0,0,26.58-55Zm.65,27a37.2,37.2,0,0,1-30.4,26.74h0a37.26,37.26,0,0,1-27.11-6.57h0a37.25,37.25,0,0,1-14.14-40.37,36.39,36.39,0,0,1,1.66-4.67v0a35.9,35.9,0,0,1,3.6-6.49,34.91,34.91,0,0,1,2.36-3v0a37.26,37.26,0,0,1,17.29-11.27h0a37,37,0,0,1,21-.24c.37.1.74.21,1.1.33a37.28,37.28,0,0,1,26,33.1h0A37.29,37.29,0,0,1,90.45,753.58Z"/><path class="cls-1" d="M59.39,706.07s-13.12-1.93-24.52,5.55c0,0,8.57-5,12.62-3.88l.79.64a1.67,1.67,0,0,1-.39.4,3.62,3.62,0,0,0-.92.81c0,.17-.17.75-.17.75l-.42.34a1.11,1.11,0,0,0-.46.15c-.12.1-.31.1-.39.4a3.59,3.59,0,0,0-.11.71l-.16.75-.34.37-.66.18a2.1,2.1,0,0,1-.9-.25c-.22-.2-.16-.75-.16-.75l.86-.26s.13-.11-.06-.3,0-.61-.42-.63a3.57,3.57,0,0,0-1.16.32l-.77.26s-.52.68-.39.72a1.75,1.75,0,0,1,.41.35,1.3,1.3,0,0,1,0,.45,2.19,2.19,0,0,1-.4.59s-.19.18-.6,0-.76-.4-1-.56a1.31,1.31,0,0,0-.74-.35c-.28,0-.39.08-.47.19a5.36,5.36,0,0,1-1.13.38s-.34,0-.39.22a4.48,4.48,0,0,1-.48.75,2,2,0,0,1-1,.18,1.27,1.27,0,0,0-.77.11l-.48.56a4.07,4.07,0,0,0-.93.48,6.08,6.08,0,0,1-1.64.71,1.72,1.72,0,0,0-.82.6c-.22.31-.33.84-.5,1a2.79,2.79,0,0,0-.63.89,1.65,1.65,0,0,1-.68.79,4.52,4.52,0,0,1-.68.27A9.06,9.06,0,0,0,27,720a1.15,1.15,0,0,0-.59.63c0,.13.26.54.39.58a2.62,2.62,0,0,1,.48.27s-.15.7-.19.83-.47.7-.22.77a3.94,3.94,0,0,1,.63.28l.64.36.49.56.27.35a2.26,2.26,0,0,1-.31.47c-.13.11-.39.36-.5.28S28,725.35,28,725s0-.45-.24-.62-.67.05-.77-.08-.32-.18-.48-.46-.3.1-.15-.27.37-.5.34-.7-.19-.66-.36-.71,0,.38-.17,0-.3-.6-.45-.59-.32,0-.26-.21.31-.62.37-.83.29-.52.34-.7.51-1.15.51-1.15A23,23,0,0,0,24,722.19s.47.07.39.36a4.34,4.34,0,0,1-.18.87,4.41,4.41,0,0,0-.38,1.13c-.26.92-.09,1.22-.29,1.47a6,6,0,0,0-.64.94,3.35,3.35,0,0,0,0,1.47,1.72,1.72,0,0,0,.18.49c.12.22-.53.78.12.22s.9-.8.9-.8l.39-.26s.13-.46.67-.19.63.18.73.46-.45.74-.18.87,1.25,0,1.46.11a.74.74,0,0,1,.49.69c0,.44,0,1.06.21,1.24s0,.68,0,1.06.75.83.93.88a4.67,4.67,0,0,1,1.14.57c.2.17-.15.51.28.76s.28,1.19.28,1.19a2.84,2.84,0,0,1-.23,1c-.18.2-.24.62,0,.76l1,.46a.52.52,0,0,0,0,.87,11,11,0,0,1,1.27,1c.14.16-.58.51.18.66s1.48.24,1.75.62-.14.71.63,1.48l1.21,1.21c.2.18.68.25.36.91s-.54,1.08-1,1.27a12.81,12.81,0,0,0-1.46,1.2,1.28,1.28,0,0,0-.58,1.2,4.34,4.34,0,0,1,.16,1.41,4.57,4.57,0,0,1-.48,1.48l-.79.83s.48.69-.11,1a5.58,5.58,0,0,1-1.79.67,5,5,0,0,0-1.24.46s-.36,1.45-.49,1.72-2.11,2.19-1.79,2.84a1.57,1.57,0,0,1,0,1.55c-.21.31-.36.2-.56.46s-1-.22-.7.73.53,1.2.63,1.73a5.16,5.16,0,0,0,.2,1.24,7.6,7.6,0,0,0,.57,1.52c.31.45.7.81.59,1.21s.49,1.57-.35.58a7.74,7.74,0,0,1-1.12-1.54c-1-1.47-1.48-1.11-1.87-2s-.19,1.8-.47-1.37a9.94,9.94,0,0,0-.78-3.63c-.11-.71-.07,0-.47-1.62s0-.55-.4-1.66-.85.13-.72-1.63-.24-.68-.17-2.71.9-1.85.12-3.06-.84-.74-1-1.47a10.84,10.84,0,0,0-.33-1.89c-.47-1.87-1.55-2.85-.72-5.59s1-3.2,1-3.2a2.8,2.8,0,0,1-.15-3c.9-1.48.93-.91.9-1.48s-.23-.49-.51-1.26-.36-.71-.35-1.15.07-1.34.07-1.34l-.43.19s-13.9,35.24,20.77,50.77c0,0-7.85-4.16-8.07-6,0,0,.26-1.6.6-1.5s.8.5,1.43.21l1.39-.62-.11.71,1.16.14c1.72.2,1.67.38,2.34.29s1.73-1.19,1.86-.32-.56.31.12.88a4.16,4.16,0,0,0,2.29.45s2.45.88,2.78.69.45-.61.86-.41.47,1,.47,1l-1.59.39-1.56.59s-.66,0-.21.4a3.78,3.78,0,0,0,1.3.65c.58.25,1.73,1.78,2.27,1.19a11.5,11.5,0,0,1,1-1c.37-.35.43-.9,1-.73a5.42,5.42,0,0,1,1.16.51l-.84,1s1.06.2,1.49.33.32.83,1.1.4a1.68,1.68,0,0,1,1.48-.33,9,9,0,0,1,1.8.23,4.16,4.16,0,0,0,1,.46c.26.08,1.29,1.38,1.59,1.29a7,7,0,0,1,1.83.42s-5.31,2.69-14.31.34A37.73,37.73,0,0,0,83,771.1c16.75-16.35,16-43.58-7.27-59.55,0,0,17.23,12.54,17.12,32.4l-.27.29c-.37-.66-.45-.4-.63-1.38s.1-.72-.07-1.42-.21-.24-.47-1a4.06,4.06,0,0,0-.62-1.1,20.34,20.34,0,0,1-.44-2.08c-.16-.41-.91-.72-1.23-.9s0-.57-.32-.18.2,1.26.2,1.26l-.39,1.38a9.32,9.32,0,0,1,.06,1.78,6,6,0,0,1-.79,1.17s-.47,1-.86,1.06a19.76,19.76,0,0,1-2.47-.14,9.94,9.94,0,0,1-.58-1.55c-.18-.7-1.25-1.19-1.35-1.5s.48-.7.15-1.54.15-.51-.37-1.31L81.9,736s-1.4-1-1.13.05-.59,1.78-.19,2,.76-.07.89.81a5,5,0,0,0,.3,1.57c.19.33,0,1.47.27,1.66s1.3.36,1.09.77-.89.86-.34,1.2.57.62.94.64.15.13.82,0a4.1,4.1,0,0,1,1.37.11s.6.82.52,1.08-.74,1.65-.74,1.65l-1.18,1.25s-.64,2.6-1.08,2.48-1.26.85-1.56.95-.89,1.8-.89,1.8l-1,.73a10.27,10.27,0,0,0-.46,1.63,7.31,7.31,0,0,1-.59,2.44,3.43,3.43,0,0,1-1.5,1.06s.94,1.57.21,1.55a3.86,3.86,0,0,0-2,1c-.24.21-.3.75-.75.71s-1.26-.17-1.33.09l-.36,1.29-1.94,1.6-2,.91s-.09,1-.63.94a10,10,0,0,0-2.79.33,5.28,5.28,0,0,1-2.22.3c-.43-.12-.08,1.28-.43-.12a9.33,9.33,0,0,1-.27-2c-.22-1.54-.51-.51-.22-1.54s.12-.06.3-1,.33-.19.13-1.46-.21-.89-.71-1.78-1.2-.34-.46-1.33.17.05.75-1,.28-1.32,1.11-1.64,1.46-.24,1.57-1a5.45,5.45,0,0,0,.13-1.45c0-.48-.55-1.36-.56-1.65s-.06-.11-.36-1-.52-1.45-.52-1.45.34-1.85.53-2.54-.38.35.19-.69.86-1.71.86-1.71-1-1.22-1.59-1.29-.67.74-1.28-.08-.31-1.2-.52-1.45a1.11,1.11,0,0,0-1.23-.25,16.36,16.36,0,0,1-2.35.08,4,4,0,0,1-2.14-.32c-1-.29-2.33-.29-3-.94s-.91-.06-1-1,.22-.78-.44-1.43-.92-.35-.79-1.15.52-.51.11-1.37a7.91,7.91,0,0,0-.41-.86c-.65-1.29-1.24-.53-.65-1.29s.7-.18,1-1.21,1.42.86,1.06-1.47-.66-2,.64-3.26a11.34,11.34,0,0,1,2.83-1.8A5.26,5.26,0,0,1,57.13,725c.42-.16.24-.5,1-.19a2.92,2.92,0,0,0,2.37-.17,7.07,7.07,0,0,1,1.94-.94c.37,0,.15.13,1,.18a5.66,5.66,0,0,1,1.54.16c.51.14-.57,0,1,.17a8.45,8.45,0,0,1,1.54.16c.34.09.14.13.72.39s.85-1.06.58.25-1,1.75,0,2.13,0,.09,1,.38.72.39,1.17.79.6.82,1.38,1-.66,1,.77.22-.5-1.54,1.44-.8,2.07,1.23,2.46,1.15.38.3,1.36.11,1.07-.16,1.37.11.08,1,.64.36,1.18-.22.29-1-1.4-.3-1.38-1,1-.28,0-.74a6,6,0,0,1-1.51-.89c-.71-.48-1.77.34-1.81-.51s-1.87,0,0-.85,1.37-1.56,2.24-1,.38,1.32,1.12,1,2-.38,1.07-1.47-.22-.52-1.2-1.36-2.71,1.38-3.13.89-.6-.82-1-.75-.66,1-.94,1.69.36,1-.61.2,1.28.08-1-1.57-3.17-1.64-3.61-1.39-.93,0-1.27.2.54,1.08-.32.19a2,2,0,0,0-2.17-.24.77.77,0,0,0-.82-.05,2.35,2.35,0,0,1-1.93-.08c-.47-.31-1.69-.28-.4-1.22s.4-.45,2-.64,3.81.33,2-.63,1.15-.14-1-2.05-2.7-.3-2.16-1.91.32-1.77-.22-1.83-2.19-.15-2.81-.23-.09.62-1-.38-1.65-.09-.93-1a3.59,3.59,0,0,1,1.71-1.46c.86-.41,1.32-2.7,2.8-1.36s.86.9,2.22,1.37,2,.39,2.1.13-1.26-1.47-1.26-1.47-.57,0-.32-.18l.74-.63-.4-.58A59.22,59.22,0,0,0,59.39,706.07Z"/><path class="cls-1" d="M272.41,656.44c.38,1-.46,2.3-1.89,2.83l-10.32,3.82c-1.43.53-2.89.12-3.27-.91h0c-.38-1,.46-2.29,1.89-2.82l10.32-3.83c1.42-.53,2.89-.12,3.27.91Z"/><path class="cls-1" d="M273.88,660.41c.38,1-.46,2.29-1.89,2.82l-10.32,3.83c-1.42.53-2.89.12-3.27-.91h0c-.38-1,.46-2.3,1.89-2.83l10.32-3.82c1.42-.53,2.89-.12,3.27.91Z"/><path class="cls-1" d="M272.27,665.52a1.84,1.84,0,0,1-.86,2.44l-6.22,2.3A1.84,1.84,0,0,1,263,669h0a1.84,1.84,0,0,1,.86-2.44l6.21-2.3a1.84,1.84,0,0,1,2.25,1.29Z"/><path class="cls-1" d="M242.26,598l0,0-.56.22-.08,0,0,0-.69.24,0,0c-31.95,12.79-12.22,41.93-.55,46.55a26.63,26.63,0,0,1,15.19,14.81l7.74-2.87,1.29-.48,7.13-2.64a25.55,25.55,0,0,1,1.56-21C279.17,621.66,274.83,586.84,242.26,598Zm26.62,24c-.08-17-18-19.87-18-19.87C274.23,597.42,268.88,621.92,268.88,621.92Z"/><path class="cls-1" d="M65.76,17.88A23.61,23.61,0,0,0,32,50.77a22.89,22.89,0,0,0,2.23,2.29,23.61,23.61,0,0,0,31.5-35.18Zm-1.44,30.4a19.21,19.21,0,1,1-1.5-27.12A19.21,19.21,0,0,1,64.32,48.28Z"/><rect class="cls-1" x="16.82" y="56.53" width="22.97" height="6.38" transform="translate(-35.07 40.97) rotate(-48.16)"/><path class="cls-1" d="M17.07,79.92a5.11,5.11,0,0,1-7.21.4h0a5.11,5.11,0,0,1-.4-7.21L23.93,57a5.11,5.11,0,0,1,7.21-.4h0a5.11,5.11,0,0,1,.4,7.21Z"/><path class="cls-1" d="M375,37.29,349.2,43a21.87,21.87,0,0,1-19.47,24.29l-3.65,36.07a11.58,11.58,0,1,1-4.7-.21L325,67.3a21.37,21.37,0,0,1-2.35-.4,21.77,21.77,0,0,1-14.52-11.13L281.69,67a10.28,10.28,0,1,1-1.94-3.9l26.76-11.31a21.63,21.63,0,0,1,.58-14l-34.43-18A17,17,0,0,1,242.72,5.42,16.86,16.86,0,0,1,245,0h28.66a17,17,0,0,1,2.26,12.91c-.07.35-.18.68-.28,1l34.67,18.13a21.87,21.87,0,0,1,38,6.72l26.74-6Z"/><path class="cls-1" d="M154.55,564.06v-6.18l-7.38-1.83a19.11,19.11,0,0,0-2.21-5.21l3.9-5.8-4.37-4.37-6.11,3.69a18.91,18.91,0,0,0-4.92-2.06l-1.38-7H125.9l-1.72,7a19.32,19.32,0,0,0-5.39,2.19l-5.9-4-4.37,4.37,3.7,6.13a19.12,19.12,0,0,0-2.21,5.33l-6.57,1.29v6.17l6.55,1.63a18.83,18.83,0,0,0,2.14,5.26l-4,6,4.37,4.37,6.17-3.72a19.06,19.06,0,0,0,5.57,2.28l1.34,6.85h6.18l1.73-7a18.9,18.9,0,0,0,5.08-2.15l5.86,3.94,4.37-4.37-3.71-6.16a18.92,18.92,0,0,0,2.13-5.14Zm-25.68,9.69a12.66,12.66,0,1,1,12.65-12.65A12.65,12.65,0,0,1,128.87,573.75Z"/><path class="cls-1" d="M189.91,571v-4.15l-5-1.23a12.85,12.85,0,0,0-1.49-3.51l2.63-3.9-2.94-2.94L179,557.75a12.81,12.81,0,0,0-3.3-1.38l-.93-4.74h-4.16l-1.16,4.67a13,13,0,0,0-3.63,1.48l-4-2.67L159,558.05l2.48,4.12a12.89,12.89,0,0,0-1.48,3.59l-4.42.86v4.16l4.41,1.09a12.37,12.37,0,0,0,1.44,3.54l-2.7,4,2.94,2.94,4.15-2.5a12.65,12.65,0,0,0,3.74,1.53l.91,4.61h4.16l1.16-4.69a12.49,12.49,0,0,0,3.42-1.45l3.94,2.66,2.94-2.94-2.49-4.14A12.74,12.74,0,0,0,185,572Zm-17.27,6.52a8.51,8.51,0,1,1,8.51-8.51A8.51,8.51,0,0,1,172.64,577.52Z"/><polygon class="cls-1" points="9.84 136.43 0 147.15 0 116.42 6.57 118.35 9.84 136.43"/><polygon class="cls-1" points="65.48 152.81 52.83 166.59 35.78 161.57 31.96 142.7 45.23 129.73 62.21 134.73 65.48 152.81"/><polygon class="cls-1" points="55.37 187.14 42.72 200.92 25.67 195.9 21.85 177.03 35.13 164.06 52.1 169.06 55.37 187.14"/><polygon class="cls-1" points="33.14 161.42 20.49 175.2 3.44 170.18 0 153.19 0 150.94 12.89 138.34 29.87 143.34 33.14 161.42"/><polygon class="cls-1" points="23.09 197.66 10.43 211.44 0 208.37 0 177.36 2.84 174.58 19.81 179.58 23.09 197.66"/><polygon class="cls-1" points="12.98 231.99 0.33 245.77 0 245.67 0 211.05 9.71 213.91 12.98 231.99"/><path class="cls-1" d="M116.86,617.15a3.54,3.54,0,1,1-6.48.9A3.46,3.46,0,0,1,112,615.9l-5.58-1.44a3.53,3.53,0,1,1-4.85-1.25l-5.65-1.45a3.47,3.47,0,0,1,.37,2.67,3.53,3.53,0,1,1-5.22-3.92l-5.58-1.43a3.49,3.49,0,0,1,.37,2.66,3.54,3.54,0,1,1-5.23-3.91l-5.57-1.44a3.54,3.54,0,1,1-6.48.91,3.58,3.58,0,0,1,1.62-2.16l-5.58-1.43a3.54,3.54,0,0,1-3.93,5.21,3.54,3.54,0,0,1-.93-6.46L55,601.22,41.42,653.8a8.74,8.74,0,0,0,6.29,10.65l49.41,12.71a8.75,8.75,0,0,0,10.65-6.29l13.52-52.58ZM106.33,661a.81.81,0,0,1-1,.58L47.9,646.77a.81.81,0,1,1,.41-1.56L105.74,660A.8.8,0,0,1,106.33,661Zm2.18-8.47a.81.81,0,0,1-1,.58L50.08,638.3a.81.81,0,1,1,.41-1.56l57.43,14.77A.82.82,0,0,1,108.51,652.5Zm2.18-8.47a.81.81,0,0,1-1,.58L52.26,629.83a.81.81,0,1,1,.41-1.56l57.43,14.78A.8.8,0,0,1,110.69,644Zm2.18-8.47a.8.8,0,0,1-1,.58L54.44,621.37a.81.81,0,0,1,.4-1.57l57.44,14.78A.8.8,0,0,1,112.87,635.56Z"/><rect class="cls-1" x="74.69" y="208.74" width="13.97" height="13.97"/><rect class="cls-1" x="93.31" y="199.43" width="13.97" height="23.28"/><rect class="cls-1" x="111.94" y="190.12" width="13.97" height="32.59"/><rect class="cls-1" x="130.56" y="180.8" width="13.97" height="41.91"/><polygon class="cls-1" points="134.26 165.35 120.48 165.35 102.38 178.92 93 174.23 70.03 193.37 70.03 199.43 93.63 179.76 102.87 184.38 122.02 170.01 136.18 170.01 144.53 161.66 144.53 155.07 134.26 165.35"/><path class="cls-1" d="M331.8,266.16H375v-5H327.64a7.36,7.36,0,0,0-7.37,7.36v38.68a7.37,7.37,0,0,0,7.37,7.37h29.47v7.06h-13.2a7.36,7.36,0,0,0-7.36,7.36v1a7.36,7.36,0,0,0,7.36,7.36H375v-27.7H331.8a6,6,0,0,1-6-6v-31.5A6,6,0,0,1,331.8,266.16Z"/><path class="cls-1" d="M177.16,694.6a5.06,5.06,0,1,0,5.05,5A5.05,5.05,0,0,0,177.16,694.6Zm0,0a5.06,5.06,0,1,0,5.05,5A5.05,5.05,0,0,0,177.16,694.6Zm0,0a5.06,5.06,0,1,0,5.05,5A5.05,5.05,0,0,0,177.16,694.6Zm0,0a5.06,5.06,0,1,0,5.05,5A5.05,5.05,0,0,0,177.16,694.6Zm0,0a5.06,5.06,0,1,0,5.05,5A5.05,5.05,0,0,0,177.16,694.6Zm0,0a5.06,5.06,0,1,0,5.05,5A5.05,5.05,0,0,0,177.16,694.6Zm0,0a5.06,5.06,0,1,0,5.05,5A5.05,5.05,0,0,0,177.16,694.6Zm0,0a5.06,5.06,0,1,0,5.05,5A5.05,5.05,0,0,0,177.16,694.6Zm0,0a5.06,5.06,0,1,0,5.05,5A5.05,5.05,0,0,0,177.16,694.6Zm0,0a5.06,5.06,0,1,0,5.05,5A5.05,5.05,0,0,0,177.16,694.6Zm0,0a5.06,5.06,0,1,0,5.05,5A5.05,5.05,0,0,0,177.16,694.6Zm0,0a5.06,5.06,0,1,0,5.05,5A5.05,5.05,0,0,0,177.16,694.6Zm0,0a5.06,5.06,0,1,0,5.05,5A5.05,5.05,0,0,0,177.16,694.6Zm0,0a5.06,5.06,0,1,0,5.05,5A5.05,5.05,0,0,0,177.16,694.6Zm12.55,25.24c.37-.41.73-.84,1.1-1.26a47.41,47.41,0,0,0,10.09-3.22c.89-.42,1.74-.85,2.55-1.31,6.14-3.46,9.88-8.24,9.88-13.59,0-4.7-2.89-8.94-7.74-12.25a1.25,1.25,0,0,0,0-.19c.16-1,.27-2,.34-3,.56-7.44-1.38-13.4-6-16.29-5.19-3.27-12.48-1.77-19.85,3.27-4.79-3.71-9.68-6.09-14-6.09a12.11,12.11,0,0,0-6.72,1.88c-4.45,2.9-6.55,10-5.9,17.68h0c.8-.45,1.65-.88,2.53-1.28-.3-6.13,1.36-12,4.78-14.24a9.51,9.51,0,0,1,5.31-1.47c3.62,0,7.71,2,11.8,5.12a57.76,57.76,0,0,0-8.33,8.09,49,49,0,0,0-13.56,3.79c-.88.4-1.73.83-2.53,1.29-6.19,3.46-10,8.26-10,13.64,0,5.64,4.16,10.64,10.92,14.15,0,.26-.07.53-.09.78-.53,7.4,1.41,13.34,6,16.22,5.06,3.19,12.14,1.84,19.34-2.93a22.94,22.94,0,0,0,11,3.38,12.14,12.14,0,0,0,6.72-1.88c4.14-2.7,6.21-7.94,6-14.83-.81.45-1.66.89-2.55,1.29,0,5.35-1.71,9.34-4.83,11.37a9.51,9.51,0,0,1-5.31,1.47A19.28,19.28,0,0,1,182,727,54.92,54.92,0,0,0,189.71,719.84Zm3.68-4.56c1.12-1.49,2.22-3.06,3.26-4.71s1.95-3.26,2.82-4.9a39.16,39.16,0,0,1,1.31,6.86A40.27,40.27,0,0,1,193.39,715.28Zm17.35-14.82c0,4.07-2.83,7.81-7.52,10.72a44.72,44.72,0,0,0-2.09-8.85A58.14,58.14,0,0,0,205.05,691C208.63,693.68,210.74,696.94,210.74,700.46Zm-37.05-19.35a50.63,50.63,0,0,1,6.37-5.76,68.75,68.75,0,0,1,5.2,4.84c1.38.15,2.72.33,4,.56a72.08,72.08,0,0,0-7-7c6.19-4,12.14-5.26,16.25-2.68,3.52,2.23,5.09,6.88,4.85,12.78,0,.91-.12,1.85-.24,2.81a44.84,44.84,0,0,0-13.85-4.63c-1.31-.23-2.65-.42-4-.57a65.46,65.46,0,0,0-6.81-.35c-1.69,0-3.34.07-5,.2Zm-2.85,3.24.14-.16a60.78,60.78,0,0,1,17,.27c1.35.22,2.66.48,3.92.78a39.43,39.43,0,0,1,10.79,4.17,51.31,51.31,0,0,1-2.9,9.41,61.91,61.91,0,0,0-5.14-9.72,29.88,29.88,0,0,0-1.77-2.57c-1.27-.3-2.57-.56-3.93-.78a37.06,37.06,0,0,1,3.53,4.77,58.21,58.21,0,0,1,5.85,11.6,70.57,70.57,0,0,1-3.88,7.06,69.26,69.26,0,0,1-5.07,7,60.73,60.73,0,0,1-18.83.49c-1.38-.17-4-.67-4-.67a44.35,44.35,0,0,1-9.22-2.92,45.12,45.12,0,0,1,1.87-7.83,51.62,51.62,0,0,0,3.05,4.93,49.48,49.48,0,0,0,3.5,4.67c1.29.27,2.63.5,4,.68a35.7,35.7,0,0,1-5.33-6.75,69,69,0,0,1-3.9-7.07,66,66,0,0,1,5.4-10.52A68.16,68.16,0,0,1,170.84,684.35Zm-24.69,16.11c0-4.14,2.91-7.92,7.72-10.85.77-.46,1.58-.91,2.43-1.33a44.35,44.35,0,0,1,10.89-3.5c-.16.21-.32.41-.47.62-1,1.41-2,2.87-3,4.4a73.2,73.2,0,0,0-4.62,8.55,38.49,38.49,0,0,1-2.26-8.77c-.86.42-1.68.86-2.44,1.33a44.68,44.68,0,0,0,3.21,11,51,51,0,0,0-2.76,9.91C149.46,708.87,146.15,704.86,146.15,700.46Zm39.35,20a49,49,0,0,1-6,5.12,43.18,43.18,0,0,1-6.07-4.72c-1.41-.1-2.78-.26-4.12-.45a49.27,49.27,0,0,0,7.89,6.72c-5.88,3.6-11.47,4.6-15.39,2.13-3.47-2.19-5-6.75-4.86-12.55l.08-.92a49.9,49.9,0,0,0,12.28,3.33c1.34.19,2.71.34,4.12.45,1.63.12,3.3.19,5,.19a62.82,62.82,0,0,0,8.25-.54C186.3,719.66,185.9,720.08,185.5,720.48Zm-8.34-15.77a5.06,5.06,0,1,0-5.06-5.06A5.05,5.05,0,0,0,177.16,704.71Zm0-10.11a5.06,5.06,0,1,0,5.05,5A5.05,5.05,0,0,0,177.16,694.6Zm0,0a5.06,5.06,0,1,0,5.05,5A5.05,5.05,0,0,0,177.16,694.6Zm0,0a5.06,5.06,0,1,0,5.05,5A5.05,5.05,0,0,0,177.16,694.6Zm0,0a5.06,5.06,0,1,0,5.05,5A5.05,5.05,0,0,0,177.16,694.6Zm0,0a5.06,5.06,0,1,0,5.05,5A5.05,5.05,0,0,0,177.16,694.6Zm0,0a5.06,5.06,0,1,0,5.05,5A5.05,5.05,0,0,0,177.16,694.6Zm0,0a5.06,5.06,0,1,0,5.05,5A5.05,5.05,0,0,0,177.16,694.6Zm0,0a5.06,5.06,0,1,0,5.05,5A5.05,5.05,0,0,0,177.16,694.6Zm0,0a5.06,5.06,0,1,0,5.05,5A5.05,5.05,0,0,0,177.16,694.6Zm0,0a5.06,5.06,0,1,0,5.05,5A5.05,5.05,0,0,0,177.16,694.6Zm0,0a5.06,5.06,0,1,0,5.05,5A5.05,5.05,0,0,0,177.16,694.6Zm0,0a5.06,5.06,0,1,0,5.05,5A5.05,5.05,0,0,0,177.16,694.6Z"/><path class="cls-1" d="M148.58,106.09a17.11,17.11,0,0,0,4.71-6.07c-3-2.76-7-6.4-11.06-9.67-.93-.07-1.91-.11-2.93-.11a42.44,42.44,0,0,1,.15,6.12A37.16,37.16,0,0,1,148.58,106.09Z"/><path class="cls-1" d="M117.84,89.67a4,4,0,0,1,4.72,1.52c1.33-.34,2.64-.64,3.93-.91a58.67,58.67,0,0,0-11.31-3.9,49.31,49.31,0,0,0-4.44,8.84c1.32-.56,2.68-1.1,4.09-1.62A4,4,0,0,1,117.84,89.67Z"/><path class="cls-1" d="M138.75,102.9a3.46,3.46,0,0,1,2.59,2.27,3.88,3.88,0,0,1-2.89,4.62,4.37,4.37,0,0,1-1.37.2c-.42,1.4-.88,2.77-1.39,4.09a54.85,54.85,0,0,0,11.69-7,34.66,34.66,0,0,0-8-8.9C139.21,99.75,139,101.31,138.75,102.9Z"/><path class="cls-1" d="M133,116.71c-1.92.76-3.94,1.48-6,2.14l-1.23.35a49.71,49.71,0,0,0,5.34,1.29Q132.06,118.69,133,116.71Z"/><path class="cls-1" d="M107.78,122.28c.1.39.18.81.28,1.19,1.34,4.86,3.75,7.92,6.85,8.81l9-2.81a30.57,30.57,0,0,0,6.36-7.66,53.67,53.67,0,0,1-7.11-1.89A69.2,69.2,0,0,1,107.78,122.28Z"/><path class="cls-1" d="M98.23,104a30.83,30.83,0,0,0-2.34,2.1c-1.08,3.8-2,7.68-2.78,10.95,2.16,2.44,6.78,3.76,12.8,3.83a42.54,42.54,0,0,1-.32-10.13A44.72,44.72,0,0,1,98.23,104Z"/><path class="cls-1" d="M115.84,119c-2.63.82-5.33-.35-6-2.61a3.9,3.9,0,0,1,.15-2.63q-1.5-.93-2.88-1.89a38.54,38.54,0,0,0,.43,9,65.15,65.15,0,0,0,13.35-1.79c-1-.39-2-.8-3-1.25A5.48,5.48,0,0,1,115.84,119Z"/><path class="cls-1" d="M113.65,86.05c-5-1-9.63-1-13.08,0,.25.73.47,1.4.66,2,.3,1-1.16,5.3-2.34,8.73-.42,1.22-.87,2.53-1.31,3.88.31.45.65.91,1,1.36a57.83,57.83,0,0,1,10.24-5.94A50.82,50.82,0,0,1,113.65,86.05Z"/><path class="cls-1" d="M108.19,97.88a56.08,56.08,0,0,0-8.73,5.2,42.67,42.67,0,0,0,6.31,5.92,55.23,55.23,0,0,1,1.06-6.14C107.21,101.16,107.67,99.5,108.19,97.88Z"/><path class="cls-1" d="M132.6,120.75a25.81,25.81,0,0,0,11-.4,8.76,8.76,0,0,0,4.52-2.91c1.8-2.39,1.63-5.6-.09-9.09A58.59,58.59,0,0,1,135,115.87,50.22,50.22,0,0,1,132.6,120.75Z"/><path class="cls-1" d="M137.94,95.24a38.26,38.26,0,0,0-.21-5,57.87,57.87,0,0,0-6.78.6l.31.16A61.12,61.12,0,0,1,137.94,95.24Z"/><path class="cls-1" d="M106.17,122.29c-6,0-10.73-1.22-13.45-3.49-.4,1.82-.74,3.39-1,4.49l-.21,1a11.45,11.45,0,0,0,3.2,10.45,7.07,7.07,0,0,0,7.07,1.66l10.9-3.4c-2.8-1.47-4.93-4.58-6.16-9.06C106.4,123.38,106.29,122.83,106.17,122.29Z"/><path class="cls-1" d="M137.54,88.87q-.19-1.29-.48-2.49c-.48-.36-1-.73-1.43-1.06-2.91-2.15-6.54-4.83-6.88-5.85-.23-.81-.52-1.83-.86-3a8.83,8.83,0,0,0-2.22.35c-3.32,1-6.68,4-9.63,8.24a61.3,61.3,0,0,1,12.86,4.71A63.18,63.18,0,0,1,137.54,88.87Z"/><path class="cls-1" d="M133.45,107.62c-.59-1.87.71-3.94,2.89-4.62a5.38,5.38,0,0,1,.87-.18,54.17,54.17,0,0,0,.66-5.78,61,61,0,0,0-7.51-4.82c-.6-.34-1.22-.65-1.83-1-1.81.33-3.67.75-5.56,1.23a4.28,4.28,0,0,1-7.74,2.41c-1.78.66-3.5,1.34-5.13,2.08a56.11,56.11,0,0,0-1.75,6,55.35,55.35,0,0,0-1.14,7.06c1.12.81,2.29,1.6,3.52,2.36a5.46,5.46,0,0,1,2.55-1.66c2.63-.82,5.33.35,6,2.61a4.06,4.06,0,0,1-.48,3.3c1.51.66,3,1.25,4.55,1.77,1-.28,2.09-.58,3.14-.91,2.53-.79,4.93-1.68,7.22-2.64.68-1.66,1.29-3.39,1.83-5.17A3.35,3.35,0,0,1,133.45,107.62Z"/><path class="cls-1" d="M157.29,103.77l-.71-.68-2.16-2a20.6,20.6,0,0,1-5.14,6.25c2.11,4.08,2.31,7.91.12,10.81a10.39,10.39,0,0,1-5.39,3.51,27.7,27.7,0,0,1-12.17.45,36.34,36.34,0,0,1-4.82,6.42l28.69-8.94a7,7,0,0,0,4.88-5.39A11.44,11.44,0,0,0,157.29,103.77Z"/><path class="cls-1" d="M124.21,55.44,90.47,66l1.45,4.68,3.54-1.1c.8,2.67,3,10.1,4.7,15.25,3.85-1.19,8.86-1.15,14.33,0,3.22-4.68,7-8,10.78-9.18a9.77,9.77,0,0,1,2.21-.42C125.94,70.06,123.8,63.43,123,61l2.67-.83-1.46-4.68Z"/><path class="cls-1" d="M133,116.71c.27-.59.53-1.19.79-1.8-2.29,1-4.69,1.85-7.22,2.64-1,.33-2.1.63-3.14.91.77.27,1.54.52,2.31.74.41-.12.82-.22,1.23-.35C129,118.19,131,117.47,133,116.71Z"/><path class="cls-1" d="M71.31,331.86V300.33L76,297,61.49,276.42l-11,7.74,14.53,20.58.1-.07v27.19H42.32V336H94.21v-4.09ZM38.83,301.51l-9,6.33,5.95,8.44,9-6.34ZM49.39,288.9l-10.64,7.5,10.82,15.33,10.63-7.5Zm24-26.56-11.78,8.31L82,299.55l11.78-8.32Z"/><path class="cls-1" d="M287.63,335.69a8.52,8.52,0,0,0-5.67,2.17l-4.66-5.15a23.19,23.19,0,0,0-6.45-34.2l5.61-10a6.34,6.34,0,1,0-4.24-6,6.32,6.32,0,0,0,2.21,4.81l-5.68,10a23.2,23.2,0,0,0-24,2.68l-5.23-6.61a8.92,8.92,0,1,0-1.7,1.65l5.14,6.51a23.13,23.13,0,0,0-7.24,16.83c0,.13,0,.24,0,.36H230a7.47,7.47,0,1,0,.26,2.18h5.6a23.22,23.22,0,0,0,14.65,19.09l-2,4a10.56,10.56,0,0,0-3.95-.75,10.71,10.71,0,1,0,5.89,1.77l2.1-4.29a23.19,23.19,0,0,0,23.21-6.41l4.67,5.13a8.52,8.52,0,1,0,7.11-3.83Z"/><path class="cls-1" d="M33.85,428.57A6.38,6.38,0,1,0,32,437.4,6.37,6.37,0,0,0,33.85,428.57Z"/><path class="cls-1" d="M32,437.4a6.38,6.38,0,1,1,1.88-8.83A6.37,6.37,0,0,1,32,437.4Z"/><path class="cls-1" d="M111.67,499.3a8.74,8.74,0,0,0-15.81,2.55c-.24.92-.29,1.62-1.61,1.71-2,.15-5.58.4-7,.47-2,.07-2.73-1.64-3.27-2.46a8.72,8.72,0,0,0-8.52-3.91,2.31,2.31,0,0,1-2.36-.88l-1.9-2.94c-.79-1.22-.48-2.08.23-3.39a8.76,8.76,0,0,0-.38-8.86c-1.15-1.78-1.45-1.95-.76-3.31,1.57-3.09,5-9.85,5.43-10.61a3.32,3.32,0,0,1,2.61-1.4,8.69,8.69,0,0,0,5.24-1.39,8.59,8.59,0,0,0,2.92-3.17c.82-1.52.77-2.1,2.37-2.16,1,0,2.38-.08,3.27-.11a2.77,2.77,0,0,1,2.6,1.87,8.59,8.59,0,0,0,3.72,3.63,8.75,8.75,0,1,0-3.82-11.77c-.72,1.44-.72,2.09-2.65,2.18-1,0-2.16.09-3,.08-1.69,0-2.28-1.8-2.83-2.65a8.78,8.78,0,0,0-8.57-3.91,3.28,3.28,0,0,1-2.74-1.24l-6.41-9.89a2.66,2.66,0,0,1,0-3.15,8.75,8.75,0,0,0-.12-9.31,3.66,3.66,0,0,1-.35-2.95c.44-.82,1-1.83,1.41-2.63a3.11,3.11,0,0,1,3.15-1.57,8.81,8.81,0,0,0,4.9-1.41,8.66,8.66,0,0,0,3.55-4.6c.2-.61,1.15-1.91,2.18-2,2-.1,5.13-.23,6.12-.2a2.4,2.4,0,0,1,2.27,1.59,8.76,8.76,0,1,0,.38-7.11c-.22.43-.86,1.16-2.63,1.4-1.17.16-4.47.24-6.59.28-1.76-.36-2.12-.62-2.69-1.5a8.73,8.73,0,0,0-7.92-4c-1.42.08-2,.27-2.95-1.24L66.94,396a2.88,2.88,0,0,1,.11-3.41,8.75,8.75,0,1,0-7,4.15c1.68-.09,2.32-.2,3.11,1l2.39,3.69c1,1.61.36,2.37.06,2.78a8.73,8.73,0,0,0-.29,9.91,3,3,0,0,1,.57,3.35,25.76,25.76,0,0,1-1.19,2.42,3.65,3.65,0,0,1-2.91,1.42,8.77,8.77,0,0,0-8.76,5,3.31,3.31,0,0,1-3,2.18c-1.48.12-7.77.42-11.15.58a3.88,3.88,0,0,1-3.12-1.93,8.74,8.74,0,0,0-8-4c-1,.06-2.1.4-3.24-1.36l-1.68-2.58c-1-1.53.16-2.8.53-3.57a8.76,8.76,0,1,0-7,5c1.18-.12,2.22-.46,3.07.85l1.45,2.23a3.7,3.7,0,0,1-.06,3.87,8.78,8.78,0,0,0,.27,9.08,3.57,3.57,0,0,1,.59,3.79c-.58,1.31-3.33,6.62-4.89,9.61-1,2-1.45,1.8-3.22,1.82a8.68,8.68,0,0,0-7.4,4.27c-.42.69-.68,2.05-2.87,2.27-1.1.11-2.26.15-3.15.16H0v4.13a1.93,1.93,0,0,1,.36-.06c.9-.08,2.21-.13,3.24-.15,1.32,0,1.43.87,2.73,2.89a8.75,8.75,0,0,0,8.58,3.9,2,2,0,0,1,2.46.82l7,10.74a2.91,2.91,0,0,1-.26,2.62,8.75,8.75,0,0,0,.07,9.41,2.05,2.05,0,0,1,.34,2.53c-.37.63-1,1.8-1.52,2.82A3,3,0,0,1,20,499.84a8.75,8.75,0,1,0,1.78,17.25,2.12,2.12,0,0,1,2.49.79l1.85,2.85a2.66,2.66,0,0,1-.2,2.52,8.74,8.74,0,1,0,6.2-3.27,2,2,0,0,1-2.35-1.2l-2.13-3.28c-1.12-1.74-.37-2.46-.14-3a8.69,8.69,0,0,0-.44-8.72c-1-1.61-1.45-1.75-.67-3.2.46-.87,1-1.91,1.37-2.63a2.23,2.23,0,0,1,2.62-1.16,8.71,8.71,0,0,0,9.26-5.61,2,2,0,0,1,2.19-1.73c1.46,0,8.61-.4,11.83-.6,1.19-.07,1.81.93,2.63,2.21A8.75,8.75,0,0,0,65,495a2.31,2.31,0,0,1,2.59.9l1.78,2.74a2.59,2.59,0,0,1-.2,3.08,8.75,8.75,0,0,0,.09,9.37c.53.83,2,1.92,1,3.79-.67,1.25-2.26,4.25-3.23,6.08-.69,1.28-1.11,1.3-2.61,1.08a8.74,8.74,0,1,0,6.12,3.89c-.71-1.08-.81-1.3-.19-2.45,1-1.89,2.84-5.32,3.6-6.76,1-2,2.2-1.63,2.85-1.65a8.54,8.54,0,0,0,4.54-1.39,8.83,8.83,0,0,0,3.1-3.48c.29-.6.53-1.88,2.35-2l8.18-.55c1.44-.09,1.31.16,2,1.19a8.76,8.76,0,0,0,14.7-9.52Zm-36.29-47a6.38,6.38,0,1,1-1.9,8.82A6.37,6.37,0,0,1,75.38,452.28ZM57.57,424.79a6.38,6.38,0,1,1-1.89,8.83A6.38,6.38,0,0,1,57.57,424.79ZM25,426.69a6.38,6.38,0,1,1-1.88,8.82A6.37,6.37,0,0,1,25,426.69Zm-7.81,39.44a6.39,6.39,0,1,1,1.88-8.82A6.38,6.38,0,0,1,17.22,466.13ZM35,493.62a6.38,6.38,0,1,1,1.88-8.83A6.37,6.37,0,0,1,35,493.62Zm20.68-10.9c-.29.64-1,2-2.3,2.06-1,0-8,.39-11.52.58-2.09.12-2.39-.94-3.05-2a8.77,8.77,0,0,0-8.39-3.93,2.37,2.37,0,0,1-2.66-.81L20.86,468c-.76-1.17-.17-2,.27-2.71a8.75,8.75,0,0,0-.1-9.35c-.47-.72-1.68-1.91-.65-3.81s5-9.78,5-9.78c.53-1.36,1.44-1.65,3-1.62a8.77,8.77,0,0,0,4.83-1.41,8.65,8.65,0,0,0,3.37-4.15,2.6,2.6,0,0,1,2.54-1.95c3.34-.2,9.76-.58,11.25-.54a3.78,3.78,0,0,1,3.27,2.15,8.75,8.75,0,0,0,8.28,3.94,2.89,2.89,0,0,1,3.22,1.52L71.44,450a3.33,3.33,0,0,1-.13,3,8.72,8.72,0,0,0,.12,9.31c.43.67,1.39,2,.64,3.41-.56,1.08-3.85,7.52-5.41,10.57a2.84,2.84,0,0,1-2.36,1.34,8.74,8.74,0,0,0-8.6,5.11Zm11.5,9.08A6.38,6.38,0,1,1,69.09,483,6.37,6.37,0,0,1,67.2,491.8Zm12.94,20A6.38,6.38,0,1,1,82,503,6.37,6.37,0,0,1,80.14,511.78Z"/><path class="cls-1" d="M375,551.73V537.19c-3.94-3.88-10.19-7.14-20.28-8.75-27.47-4.38-52.24,9.56-46,40,0,5.56-11,14.18-8.35,17.1s7.15,3,7.15,3-2.92,5.55-1.61,7.08,5,.88,5,.88-3.4,2.45-3.4,4.35,5.74,4.42,5.74,4.42-1,10.51,7.56,9.78S330.83,612,330.83,612l2.55,10.63h33.33l-1.17-23.1a86.19,86.19,0,0,0,9.46-13V572.39L372,574l-.72-1.29.38-.22h0l-.24,0a1,1,0,0,1-.27-.11,1.63,1.63,0,0,1-.27-.22,2.19,2.19,0,0,1-.27-.39,1.4,1.4,0,0,1-.19-.75,1.54,1.54,0,0,1,.17-.7,2.19,2.19,0,0,1,.45-.61,2.5,2.5,0,0,1,.62-.46,2.89,2.89,0,0,1,.67-.29,1.84,1.84,0,0,1,.73-.09,1.55,1.55,0,0,1,.69.22,1.57,1.57,0,0,1,.57.64,1.31,1.31,0,0,1,.18.63,1.14,1.14,0,0,1-.12.6h0l.58-.32v-9.85a4.29,4.29,0,0,1-1-.12l-4.89-1.24,2.17-8.63Zm-21-3.68h-1.85l-.82-1.46-.27.29v1.17h-1.54V542.5h1.54v2.68l1-1.17h1.74l-1.44,1.53Zm-4.47-16.71a1,1,0,0,1,0,.18,1.08,1.08,0,0,1,0,.18h0a1.09,1.09,0,0,1,.56-.34,2.09,2.09,0,0,1,.67-.08,1.7,1.7,0,0,1,.51.08,1.06,1.06,0,0,1,.42.22,1,1,0,0,1,.28.36,1.08,1.08,0,0,1,.09.52,1,1,0,0,1-.12.5,1,1,0,0,1-.29.33,1.72,1.72,0,0,1-.41.19,3.57,3.57,0,0,1-.47.11l-.46,0-.42.05a1.07,1.07,0,0,0-.27.09.25.25,0,0,0-.13.24.27.27,0,0,0,.14.27.62.62,0,0,0,.32.09.53.53,0,0,0,.27,0,.34.34,0,0,0,.17-.09.38.38,0,0,0,.09-.13.53.53,0,0,0,0-.12l1.34,0a1.11,1.11,0,0,1-.22.64,1.28,1.28,0,0,1-.46.37,2.42,2.42,0,0,1-.63.16,5,5,0,0,1-.67,0,3.33,3.33,0,0,1-1-.15,1.14,1.14,0,0,1-.53-.35.89.89,0,0,1-.18-.49,4.64,4.64,0,0,1,0-.53l0-1.56a3.39,3.39,0,0,0,0-.44.83.83,0,0,0-.13-.41Zm-27.32,11.95,1.21.73.5-.81.93.57-.49.81,1.39.84a.84.84,0,0,0,.45.16c.13,0,.24-.11.36-.3s.13-.24.19-.37l1.15.7c-.09.16-.18.32-.27.5a5.05,5.05,0,0,1-.28.51,4.73,4.73,0,0,1-.32.46,1.24,1.24,0,0,1-.42.34,1.08,1.08,0,0,1-.55.1,1.66,1.66,0,0,1-.72-.27l-1.9-1.15-.41.67-.94-.56.41-.68-1.21-.74Zm2,8.38-.76,1.26-4.09-1.18v0l3.51,2.13-1,1.6-5.48-3.33,1.45-2.4,3.7,1.17h0l-2.75-2.74,1.46-2.4,5.48,3.32-1,1.6-3.52-2.14v0Zm3.66,7.58L325,557.93l4.77-10.49,2.91,1.33Zm5.25-15.65a5.42,5.42,0,0,1-2.12-.39,4.61,4.61,0,0,1-1.56-1.09,4.53,4.53,0,0,1-1-1.63,6.13,6.13,0,0,1-.33-2,5.91,5.91,0,0,1,.35-2.11,4.46,4.46,0,0,1,2.57-2.67,5.4,5.4,0,0,1,2.06-.37,4.56,4.56,0,0,1,3.14,1,4.32,4.32,0,0,1,1.3,2.88h-2.94c0-.09-.05-.22-.1-.38a1.39,1.39,0,0,0-.25-.48,1.6,1.6,0,0,0-.47-.41,1.45,1.45,0,0,0-.76-.18,1.59,1.59,0,0,0-.9.24,1.67,1.67,0,0,0-.57.61,3.32,3.32,0,0,0-.31.87,5.41,5.41,0,0,0-.09,1,5.33,5.33,0,0,0,.09,1,3.12,3.12,0,0,0,.31.86,1.62,1.62,0,0,0,.57.62,1.76,1.76,0,0,0,1.55.11,1.41,1.41,0,0,0,.46-.34,1.93,1.93,0,0,0,.3-.53,3.17,3.17,0,0,0,.18-.64h3a3.86,3.86,0,0,1-.3,1.47,4.15,4.15,0,0,1-2.28,2.25A4.62,4.62,0,0,1,333.18,543.6Zm3,18.42-.87-1.42,1.79-1.11h0a1.85,1.85,0,0,1-.62-.22,1.71,1.71,0,0,1-.58-.63,1.9,1.9,0,0,1-.23-.53,1.7,1.7,0,0,1,0-.55,1.26,1.26,0,0,1,.21-.53,1.76,1.76,0,0,1,.49-.44l2.55-1.58.87,1.42-1.94,1.2-.28.19a1,1,0,0,0-.2.21.49.49,0,0,0-.06.23.48.48,0,0,0,.1.28.86.86,0,0,0,.14.18.84.84,0,0,0,.23.12.75.75,0,0,0,.3,0,1.54,1.54,0,0,0,.39-.17l2-1.21.88,1.41Zm3.75-8.6-3.35-3.36-1.27,1.26-1.16-1.15,3.92-3.92,1.16,1.15L338,548.67l3.36,3.35Zm.3-10.21a2.9,2.9,0,0,1-.93-.88,3.89,3.89,0,0,1-.56-1.22,5.22,5.22,0,0,1-.19-1.34,6.46,6.46,0,0,1,.14-1.3,3.39,3.39,0,0,1,.48-1.19,2.57,2.57,0,0,1,.94-.88,2.89,2.89,0,0,1,1.48-.35,2.47,2.47,0,0,1,1.13.25,2.2,2.2,0,0,1,.83.71h0v-3.46h2.72v9.82h-2.63v-.78h0a4.28,4.28,0,0,1-.29.33,1.37,1.37,0,0,1-.39.31,2.26,2.26,0,0,1-.58.23,3.32,3.32,0,0,1-.84.09A2.5,2.5,0,0,1,340.25,543.21Zm11.36,20.34-.55-1.87h-4.15l-.58,1.87h-4.05l4.81-13.06H351l4.75,13.06Zm13.33,2.25-1.05,3.37-1.88-.59.81-2.57c0-.14.07-.28.1-.4a.93.93,0,0,0,0-.33.5.5,0,0,0-.13-.26.61.61,0,0,0-.3-.17.77.77,0,0,0-.27,0,.57.57,0,0,0-.28.06,1.1,1.1,0,0,0-.27.23,1.31,1.31,0,0,0-.22.46l-.81,2.59-1.88-.58,2.11-6.76,1.88.59-.75,2.37h0a2,2,0,0,1,.74-.29,2.19,2.19,0,0,1,1,.11,1.9,1.9,0,0,1,.6.31,1.83,1.83,0,0,1,.45.47,1.67,1.67,0,0,1,.21.64A1.84,1.84,0,0,1,364.94,565.8Zm-1.9-8.26a1.32,1.32,0,0,1-.07-.3,1.78,1.78,0,0,1,0-.31h0a2,2,0,0,1-.95.61,3.88,3.88,0,0,1-1.14.17,3.19,3.19,0,0,1-.89-.12,1.86,1.86,0,0,1-.72-.35,1.78,1.78,0,0,1-.5-.62,2,2,0,0,1-.18-.88,1.78,1.78,0,0,1,.18-.85,1.62,1.62,0,0,1,.49-.58,2.36,2.36,0,0,1,.69-.35,5.54,5.54,0,0,1,.8-.21l.8-.11c.26,0,.5-.07.7-.11a1.86,1.86,0,0,0,.47-.16.42.42,0,0,0,.21-.42.49.49,0,0,0-.26-.46,1.16,1.16,0,0,0-.56-.14,1.84,1.84,0,0,0-.46.06,1,1,0,0,0-.28.17.48.48,0,0,0-.14.22.6.6,0,0,0,0,.22h-2.3a2,2,0,0,1,.33-1.11,2.13,2.13,0,0,1,.79-.64A3.26,3.26,0,0,1,361,551a7.63,7.63,0,0,1,1.16-.08,5.59,5.59,0,0,1,1.79.22,2,2,0,0,1,.91.58,1.56,1.56,0,0,1,.33.82c0,.3,0,.61,0,.92v2.66a6.51,6.51,0,0,0,0,.75,1.56,1.56,0,0,0,.26.7Zm6.44,6.2a3.25,3.25,0,0,1,1.14-.4,2.44,2.44,0,0,1,1.08,0,2.67,2.67,0,0,1,.95.48,3.29,3.29,0,0,1,.74.92,2.55,2.55,0,0,1,.36,1.83,2.42,2.42,0,0,1-1.06,1.43l-.81-1.45.16-.15a.84.84,0,0,0,.17-.26.89.89,0,0,0,.07-.34.74.74,0,0,0-.12-.43,1,1,0,0,0-.36-.38,1,1,0,0,0-.46-.11,1.63,1.63,0,0,0-.52.09,3.09,3.09,0,0,0-1,.53,1.54,1.54,0,0,0-.34.39,1,1,0,0,0-.15.45.9.9,0,0,0,.13.51.89.89,0,0,0,.24.29.84.84,0,0,0,.29.13,1.36,1.36,0,0,0,.35,0l.37-.09.81,1.47a2.15,2.15,0,0,1-.8.26,2.44,2.44,0,0,1-.89-.07,2.35,2.35,0,0,1-.86-.44,2.66,2.66,0,0,1-.7-.84,3.06,3.06,0,0,1-.39-1.16,2.54,2.54,0,0,1,.11-1.07,2.58,2.58,0,0,1,.54-.93A3.45,3.45,0,0,1,369.48,563.74Zm-2.22-14.35-6.87-6.87-2.59,2.59-2.36-2.37,8-8,2.36,2.37-2.59,2.58,6.87,6.87Z"/><path class="cls-1" d="M373.37,570.44a.6.6,0,0,0-.3-.07,1.05,1.05,0,0,0-.33.06,1.87,1.87,0,0,0-.32.15,1.57,1.57,0,0,0-.3.2.9.9,0,0,0-.23.25.65.65,0,0,0-.11.29.7.7,0,0,0,.33.59.67.67,0,0,0,.31.07,1,1,0,0,0,.33-.07,2.41,2.41,0,0,0,.33-.15,1.81,1.81,0,0,0,.29-.19.89.89,0,0,0,.23-.25.59.59,0,0,0,0-.63A.55.55,0,0,0,373.37,570.44Z"/><path class="cls-1" d="M375.08,557.87a.78.78,0,0,1-.08.23.46.46,0,0,1-.11.16.7.7,0,0,1-.29.19.85.85,0,0,1-.36,0,1.45,1.45,0,0,1-.41-.06l-1.55-.39.4-1.61,1.67.42a1,1,0,0,1,.65.38A.76.76,0,0,1,375.08,557.87Z"/><path class="cls-1" d="M375,553.93v1.29a1.35,1.35,0,0,1-.51-.05l-1.4-.35.32-1.3,1.41.35Z"/><path class="cls-1" d="M350.19,532.88a1.19,1.19,0,0,0,.37-.14.32.32,0,0,0,.13-.26.35.35,0,0,0-.12-.25.5.5,0,0,0-.33-.11.62.62,0,0,0-.42.13.61.61,0,0,0-.2.44V533l.28-.1Z"/><path class="cls-1" d="M343.1,541.41a1.19,1.19,0,0,0,.36-.41,1.72,1.72,0,0,0,.18-.58,4,4,0,0,0,0-1.26,1.6,1.6,0,0,0-.18-.56,1.1,1.1,0,0,0-.36-.41,1,1,0,0,0-.6-.16,1,1,0,0,0-.6.16,1.19,1.19,0,0,0-.36.41,1.61,1.61,0,0,0-.19.56,4,4,0,0,0,0,1.26,1.72,1.72,0,0,0,.19.58,1.19,1.19,0,0,0,.36.41,1,1,0,0,0,.6.16A1,1,0,0,0,343.1,541.41Z"/><polygon class="cls-1" points="349.05 554.86 347.79 558.88 350.26 558.88 349.09 554.86 349.05 554.86"/><path class="cls-1" d="M361.86,556.24a1,1,0,0,0,.71-.25,1,1,0,0,0,.32-.76v-.6a3.8,3.8,0,0,1-.47.18l-.51.13a2,2,0,0,0-.62.23.53.53,0,0,0-.21.47.52.52,0,0,0,.22.41A.79.79,0,0,0,361.86,556.24Z"/></g></svg>