<?xml version="1.0" encoding="utf-8"?>
<!-- Generator: Adobe Illustrator 24.3.0, SVG Export Plug-In . SVG Version: 6.00 Build 0)  -->
<svg version="1.1" xmlns="http://www.w3.org/2000/svg" xmlns:xlink="http://www.w3.org/1999/xlink" x="0px" y="0px"
	 viewBox="0 0 375 812" style="enable-background:new 0 0 375 812;" xml:space="preserve">
<style type="text/css">
	.st0{fill:#D7E6FF;}
	.st1{fill:none;}
</style>
<g id="Artboard_BG">
</g>
<g id="Logo_Type">
</g>
<g id="Logo_Icon">
	<path class="st0" d="M282.8,221.6h-5c11.9-7.9,19.8-21.5,19.8-36.9c0-20.7-14.2-38-33.4-42.8l8.3-15.8c1-1.9,0.2-4.2-1.6-5.1
		l-19.9-9.6c-0.9-0.4-1.9-0.5-2.9-0.1c-0.9,0.4-1.7,1.1-2.2,2L222.4,158c-1.9,3.9-0.4,8.5,3.2,10.3l-3.2,6.6l13.3,6.4l3.2-6.6
		c1,0.5,2,0.7,3.1,0.7c2.8,0,5.6-1.7,7-4.5l8-15.2c14.5,1.8,25.9,14.1,25.9,29.1c0,16.3-13.2,29.5-29.5,29.5c-7.4,0-17-2.8-22.1-7.4
		v-3.7c0-2,1.7-3.7,3.7-3.7h18.4v-7.4h-59v7.4h18.4c2,0,3.7,1.6,3.7,3.7v18.4c-8.2,0-14.8-0.8-14.8,7.4h95.9
		C297.6,220.9,291,221.6,282.8,221.6z M257,120.8c-1,0.5-1.8,1.3-2.4,2.4l-17,32l-6.5-3.1c0.1-0.5,0.2-1,0.4-1.5l16.2-30
		c0.4-0.9,1.2-1.7,2.2-2c0.9-0.4,2-0.3,2.8,0.1L257,120.8C257.1,120.8,257,120.8,257,120.8z"/>
	<g id="layer1" transform="translate(-5.249704,-1.575373)">
		<path class="st0" d="M268.2,554.7c-2.4,3.4-7,4.8-12,3.3l-49-14.7c0,0,0,0-0.1,0c-4.7-1.1-7.6-4.6-8.1-8.6
			c-0.4-4.1,1.5-8.6,5.7-12.4c0,0,0,0,0.1,0l30.6-25.3l4.7-16.1c0.8-2.7,1.5-4.7,1.7-6.6c0.2-1.9-0.1-3.7-1.5-6.3
			c-0.3-0.5-0.2-1.1,0.2-1.6c0.3-0.4,0.9-0.6,1.5-0.5l26.7,8c0.5,0.2,0.9,0.6,1,1.2c0.1,0.6-0.2,1.1-0.7,1.4
			c-2.6,1.4-3.8,2.8-4.7,4.5c-0.8,1.6-1.3,3.7-2,6.2c0,0,0,0,0,0c0,0.1,0,0.1-0.1,0.2l-4.4,16.2l10.8,36.6l0,0.1
			C270.9,546.1,270.6,551.3,268.2,554.7z"/>
	</g>
	<g>
		<g>
			<g>
				<path class="st0" d="M355,384.4c-2.9-4-8.6-4.8-12.6-1.8l-10.8,8.1c-1.3-1.1-3-1.4-4.6-0.8l-0.7-1c-3.7-5-10.8-6-15.7-2.3
					l-11.3,8.4c-5,3.7-6,10.8-2.3,15.7l0.7,1c-1,1.3-1.3,3.1-0.6,4.6l-10.8,8.1c-4,3-4.8,8.6-1.8,12.6l28,37.7c3,4,8.6,4.8,12.6,1.8
					l50-37.2v-28L355,384.4z M300.5,408c-2.2-3-1.6-7.2,1.4-9.4l11.3-8.4c3-2.2,7.2-1.6,9.4,1.4l0.7,1c-1,1.3-1.3,3.1-0.6,4.6
					l-16.9,12.6c-1.3-1.1-3.1-1.4-4.6-0.8L300.5,408z M361.3,440.3l-25.2,18.8c-4,2.9-9.6,2.1-12.6-1.8L304.7,432
					c-3-4-2.1-9.6,1.9-12.6l25.2-18.8c4-3,9.6-2.1,12.6,1.8l18.8,25.2C366.1,431.7,365.3,437.3,361.3,440.3z"/>
			</g>
		</g>
		<g>
			<g>
				<path class="st0" d="M343.8,430.3c-0.4,0.3-0.5,0.9-0.2,1.3l5.7,7.6c0.3,0.4,0.2,1-0.2,1.3l-9.2,6.8c-0.4,0.3-1,0.2-1.3-0.2
					l-5.6-7.6c-0.3-0.4-0.9-0.5-1.3-0.2l-7.6,5.6c-0.4,0.3-1,0.2-1.3-0.2l-6.8-9.2c-0.3-0.4-0.2-1,0.2-1.3l7.6-5.7
					c0.4-0.3,0.5-0.9,0.2-1.3l-5.6-7.6c-0.3-0.4-0.2-1,0.2-1.3l9.2-6.9c0.4-0.3,1-0.2,1.3,0.2l5.7,7.6c0.3,0.4,0.9,0.5,1.3,0.2
					l7.6-5.6c0.4-0.3,1-0.2,1.3,0.2l6.9,9.2c0.3,0.4,0.2,1-0.2,1.3L343.8,430.3z"/>
			</g>
		</g>
	</g>
	<g>
		<g id="g3285" transform="matrix(1.4211965,1.6572667,-1.6572667,1.4211965,68.01894,-22.557433)">
			<path id="path3289" class="st1" d="M180,88.6l-0.6,4.9"/>
			<path id="path3291" class="st1" d="M185.9,89.3l-0.6,4.9"/>
			<path id="path3293" class="st1" d="M191.7,89.8l-0.6,4.9"/>
			<path id="path3295" class="st1" d="M197.5,90.4l-0.6,4.9"/>
			<path class="st0" d="M206.2,92.8c0.9,1.4,1.3,3,1.2,4.2c-0.1,1.2-0.8,2.7-2,3.9c-1.2,1.2-3,2.2-5.1,2l-23.5-2.3
				c-1.2-0.1-2.1-0.2-3-0.1c-0.9,0.1-1.7,0.5-2.7,1.3c-0.2,0.2-0.6,0.2-0.8,0c-0.1-0.1-0.2-0.3-0.2-0.5l1.6-15.7
				c0-0.2,0.2-0.5,0.4-0.5c0.2-0.1,0.5,0,0.6,0.2c0.8,1,1.6,1.5,2.4,1.8c0.8,0.3,1.7,0.4,2.9,0.5l23.5,2.3
				C203.7,90.1,205.2,91.4,206.2,92.8z"/>
		</g>
	</g>
	<g>
		<g>
			<path class="st0" d="M371.1,690.8c-0.5,0.5-1.4,0.1-2.3-0.8c-5.4-5.1-23.1-22.1-23.8-22.9c-0.8-0.9-0.6-1.6-0.4-1.8
				c1.8-1.8,1.8-4.6,0-6.4c-1.8-1.8-4.8-1.8-6.6,0c-13.9,13.5-17.5,31-19.5,48c-0.1,0.6-0.3,0.9-0.9,0.9c-20.4,2-42,3.3-57.3,17.9
				c-15.2,14.8-16.6,35.5-18.6,55.2c0,0.4-0.5,0.8-1.1,0.9c-17.7,2-35.8,5.5-49.7,18.8c-1.8,1.8-1.8,4.6,0,6.4
				c1.8,1.8,4.8,1.8,6.6,0c0.4-0.4,0.9-0.8,1.3-1.2c0.7-0.6,1.1-0.7,2.1,0.2c1.3,1.2,3.5,3.4,6.1,5.9h13.5
				c-5.6-5.4-11.3-10.9-11.7-11.3c-0.9-0.8-0.3-1.4,0.1-1.6c2.4-1.2,4.8-2.2,7.4-3.1c0.4-0.2,1.4-0.2,2,0.3
				c0.4,0.5,12.2,11.7,16.3,15.7h11.6c2-6.9,3.1-14,3.9-21c0.1-0.7,0.2-1,0.9-1c20.4-2,41.9-3.3,57.3-17.9
				c15.2-14.8,16.6-35.5,18.6-55.2c0-0.5,0.3-0.8,1-0.8c16.6-1.8,33.6-5,47.1-16.4v-10.1C373.6,689.4,372.2,689.8,371.1,690.8z
				 M239,801.8c-0.1,0.4-0.4,1.2-1,0.5c-0.5-0.5-6.6-6.3-8.9-8.6c-0.6-0.5,0.1-1,0.5-1.1c3.3-0.6,6.7-1.1,10.1-1.5
				c0.5-0.1,1,0.2,0.9,0.8C240.2,795.3,239.7,798.6,239,801.8z M255.5,780.5c-1.1,0.1-2.2,0.2-3.2,0.3c-0.8,0.1-1-0.4-1-1.1
				c0.1-1,0.2-2,0.3-3.1c0-0.4,0.3-1,1-0.2c0.5,0.5,2,2,3,3C256.3,780,255.9,780.5,255.5,780.5z M279.3,777c-3,0.7-6.2,1.3-9.5,1.8
				c-0.3,0-1.1,0-1.8-0.6c-0.6-0.6-10.7-10.3-13.8-13.4c-1-0.9-0.9-1.5-0.7-2.4c0.5-2.9,1.1-5.7,1.8-8.3c0.3-1,0.9-0.8,1.5-0.3
				c0,0,22.1,21.3,22.7,21.9C280,776.3,279.6,776.9,279.3,777z M298,768.8c-2,1.5-4.2,2.8-6.5,3.9c-0.9,0.4-1.4,0.3-2.1-0.4
				c-5.2-5-29-27.9-29.5-28.4c-0.5-0.5-0.5-1.4-0.3-1.7c1.2-2.3,2.6-4.5,4.1-6.5c0.3-0.3,1.2-0.4,1.5-0.2c0,0,32,30.8,32.6,31.4
				C298.5,767.7,298.3,768.6,298,768.8z M309.9,754.1c-1,2.2-2.2,4.3-3.6,6.3c-0.3,0.4-1.2,0.8-2,0c-0.9-0.8-32.3-31.2-32.3-31.2
				c-0.3-0.3-0.2-0.8,0.3-1.1c2.1-1.4,4.4-2.6,6.8-3.7c0.4-0.2,1.4-0.5,2.5,0.6c1,0.9,22.5,21.6,27.8,26.8
				C310.1,752.4,310.1,753.6,309.9,754.1z M315.7,732.5c-0.5,3.2-1,6.3-1.7,9.3c-0.1,0.4-0.5,0.9-1.1,0.3
				c-0.7-0.6-20.6-19.9-21.4-20.6c-0.7-0.7-0.1-1,0.3-1.1c2.9-0.6,6-1.1,9.1-1.6c0.5-0.1,1.4-0.5,2.4,0.5c0.8,0.8,9,8.7,11.8,11.3
				C315.5,731.2,315.8,732.2,315.7,732.5z M317.2,719.8l-2.6-2.5c1-0.1,1.9-0.2,2.9-0.3C317.4,718,317.3,718.9,317.2,719.8z
				 M341.9,704.8c-3.3,0.7-6.7,1.2-10.1,1.6c-3.5,0.5-3.8,0-3.3-3.1c0.5-3.3,1-6.5,1.7-9.7c0.1-0.3,0.6-0.7,1.1-0.2
				c2.7,2.5,10.5,10.1,10.8,10.4C342.5,704.3,342.2,704.7,341.9,704.8z M361,698.2c-1.9,1-3.9,1.9-5.9,2.8c-0.6,0.2-1.8,0.4-2.9-0.5
				c-0.9-0.7-12.7-12.2-17.1-16.4c-1-1-1.1-2.8-0.9-3.3c0.9-2,1.8-3.9,2.9-5.8c0.3-0.5,1.4-1,2.3-0.2c4.8,4.6,20.7,19.9,21.7,21
				C362.4,697,361.6,697.9,361,698.2z"/>
		</g>
	</g>
	<g>
		<path class="st0" d="M166,323.8l-22.3-24.9c-2.3-2.6-5.6-4-8.9-4c-2.8,0-5.7,1-8,3.1c-4.9,4.4-5.3,12-0.9,16.9l22.3,24.9
			c2.4,2.6,5.6,4,8.9,4c2.8,0,5.7-1,8-3.1C170,336.2,170.4,328.7,166,323.8z M150.8,314.3c-1.7,3-5.7,6.5-9.6,8.7
			c-1.4,0.8-2.7,0-3.4-0.8c-2.1-2.3-6.5-7.2-8.9-9.9c-1.4-1.6-2.2-3.7-2-5.8c0.1-2.1,1-4.1,2.6-5.5c1.5-1.3,3.4-2,5.3-2
			c2.3,0,4.4,1,6,2.6c0.3,0.3,7.5,8.5,9.6,10.8C150.9,312.8,151.3,313.5,150.8,314.3z"/>
		<path class="st0" d="M185.9,310.1l-12.1-23.8c-1.7-3.3-5-5.2-8.5-5.2c-1.5,0-2.9,0.3-4.3,1c-4.7,2.4-6.6,8.1-4.2,12.8l12.1,23.8
			c1.7,3.3,5,5.2,8.5,5.2c1.5,0,2.9-0.3,4.3-1C186.4,320.6,188.3,314.8,185.9,310.1z M174.3,298.5c-1.2,0.4-2.5,1-3.9,1.6
			c-1.5,0.7-2.9,1.5-4,2.2c-1.1,0.8-1.7,0.4-2.2-0.6c-1.3-2.5-3.3-6.6-4.2-8.4c-0.7-1.4-0.9-3.1-0.4-4.6s1.5-2.8,3-3.5
			c0.9-0.4,1.8-0.6,2.7-0.6c2.3,0,4.3,1.2,5.4,3.3c1,1.9,3.2,6.1,4.4,8.5C175.5,297.5,175.2,298.2,174.3,298.5z"/>
	</g>
	<path class="st0" d="M352.6,173c0-8.9-7.2-16.1-16.1-16.1c-8.9,0-16.1,7.2-16.1,16.1c0,7.8,5.5,14.3,12.9,15.8v6.8h-6.4v6.4h6.4
		v6.4h6.4V202h6.4v-6.4h-6.4v-6.8C347,187.3,352.6,180.8,352.6,173z M336.5,182.7c-5.3,0-9.7-4.3-9.7-9.7c0-5.3,4.3-9.6,9.7-9.6
		s9.7,4.3,9.7,9.6C346.1,178.3,341.8,182.7,336.5,182.7z"/>
	<path class="st0" d="M202.5,73.3v6.4H214l-12.3,12.3c-2.5-1.7-5.6-2.7-8.9-2.7c-8.9,0-16.1,7.2-16.1,16.1s7.2,16.1,16.1,16.1
		c8.9,0,16.1-7.2,16.1-16.1c0-3.3-1-6.3-2.7-8.9l12.3-12.3v11.5h6.4V73.3H202.5z M192.8,115.2c-5.3,0-9.7-4.3-9.7-9.7
		c0-5.3,4.3-9.7,9.7-9.7c5.3,0,9.7,4.3,9.7,9.7C202.5,110.8,198.2,115.2,192.8,115.2z"/>
	<g>
		<g>
			<g>
				<g>
					<path class="st0" d="M93.1,712.1l-4.5,3.5c8.2,10.6,11.5,24.7,7.6,38.6c-6.5,23.1-30.6,36.6-53.7,30.1
						c-13.6-3.8-23.9-13.8-28.7-26l-5.2,2.2c5.2,13.1,15.9,23.8,30.1,28.5c0.8,0.3,1.5,0.5,2.3,0.7c0.9,0.2,1.8,0.5,2.7,0.7
						c0.8,0.2,1.7,0.4,2.5,0.5c0.9,0.1,1.7,0.3,2.6,0.4c23.6,2.7,46.3-12,52.9-35.6C106.1,740.1,102.4,724.1,93.1,712.1z"/>
					<path class="st0" d="M89.8,726.6C89.8,726.5,89.8,726.5,89.8,726.6c-4.7-9.8-13.4-17.5-24.6-20.7c-20.8-5.8-42.3,6.2-48.2,27
						c-5.8,20.8,6.2,42.3,27,48.2c6.4,1.8,12.9,1.9,18.9,0.5c0.1,0,0.2,0,0.2,0c13.5-3.1,25-13.2,29-27.5
						C94.9,744.5,93.8,734.9,89.8,726.6z M90.5,753.6c-4.1,14.6-16.3,24.7-30.4,26.7c0,0,0,0,0,0c-5,0.8-10.3,0.5-15.5-1
						c-4.3-1.2-8.2-3.1-11.6-5.6h0c-12.4-8.9-18.5-24.9-14.1-40.4c0.4-1.6,1-3.2,1.7-4.7c0,0,0,0,0,0c1-2.3,2.2-4.5,3.6-6.5
						c0.7-1.1,1.5-2.1,2.4-3c0,0,0,0,0,0c4.6-5.3,10.6-9.2,17.3-11.3c0,0,0,0,0,0c6.6-2,13.8-2.2,21-0.2c0.4,0.1,0.7,0.2,1.1,0.3
						c15,4.7,25,18.2,26,33.1c0,0,0,0,0,0C92,745.2,91.6,749.4,90.5,753.6z"/>
					<path class="st0" d="M59.4,706.1c0,0-13.1-1.9-24.5,5.5c0,0,8.6-5,12.6-3.9l0.8,0.6c0,0-0.2,0.3-0.4,0.4
						c-0.2,0.1-0.9,0.6-0.9,0.8c0,0.2-0.2,0.7-0.2,0.7l-0.4,0.3c0,0-0.3,0-0.5,0.2c-0.1,0.1-0.3,0.1-0.4,0.4
						c-0.1,0.3-0.1,0.7-0.1,0.7l-0.2,0.7l-0.3,0.4l-0.7,0.2c0,0-0.7-0.1-0.9-0.3c-0.2-0.2-0.2-0.7-0.2-0.7l0.9-0.3
						c0,0,0.1-0.1-0.1-0.3c-0.2-0.2,0-0.6-0.4-0.6c-0.4,0-1.2,0.3-1.2,0.3l-0.8,0.3c0,0-0.5,0.7-0.4,0.7c0.1,0,0.4,0.3,0.4,0.3
						s0,0.2,0,0.5c-0.1,0.2-0.4,0.6-0.4,0.6s-0.2,0.2-0.6,0c-0.4-0.2-0.8-0.4-1-0.6c-0.2-0.2-0.5-0.4-0.7-0.3
						c-0.3,0-0.4,0.1-0.5,0.2c-0.1,0.1-1.1,0.4-1.1,0.4s-0.3,0-0.4,0.2c0,0.2-0.5,0.7-0.5,0.7s-0.4,0.2-1,0.2
						c-0.6,0-0.8,0.1-0.8,0.1l-0.5,0.6c0,0-0.5,0.2-0.9,0.5c-0.4,0.3-1.5,0.7-1.6,0.7c-0.1,0-0.6,0.3-0.8,0.6
						c-0.2,0.3-0.3,0.8-0.5,1c-0.2,0.1-0.5,0.6-0.6,0.9c-0.1,0.3-0.5,0.7-0.7,0.8c-0.2,0.1-0.5,0.3-0.7,0.3c-0.1,0-1,0-1.3,0.1
						c-0.3,0.1-0.6,0.5-0.6,0.6c0,0.1,0.3,0.5,0.4,0.6c0.1,0,0.5,0.3,0.5,0.3s-0.2,0.7-0.2,0.8c0,0.1-0.5,0.7-0.2,0.8
						c0.3,0.1,0.6,0.3,0.6,0.3l0.6,0.4l0.5,0.6l0.3,0.4c0,0-0.2,0.4-0.3,0.5c-0.1,0.1-0.4,0.4-0.5,0.3c-0.1-0.1-0.1-0.1-0.1-0.4
						c0-0.3,0-0.5-0.2-0.6c-0.3-0.2-0.7,0-0.8-0.1c-0.1-0.1-0.3-0.2-0.5-0.5c-0.2-0.3-0.3,0.1-0.2-0.3c0.2-0.4,0.4-0.5,0.3-0.7
						c0-0.2-0.2-0.7-0.4-0.7c-0.2,0,0,0.4-0.2,0c-0.2-0.4-0.3-0.6-0.4-0.6c-0.1,0-0.3,0-0.3-0.2s0.3-0.6,0.4-0.8
						c0.1-0.2,0.3-0.5,0.3-0.7c0-0.2,0.5-1.2,0.5-1.2s-1.8,1.9-2.7,3.5c0,0,0.5,0.1,0.4,0.4c-0.1,0.3,0,0.6-0.2,0.9
						c-0.1,0.3-0.1,0.2-0.4,1.1c-0.3,0.9-0.1,1.2-0.3,1.5c-0.2,0.3-0.5,0.6-0.6,0.9c-0.2,0.3-0.1,1.3,0,1.5c0.1,0.2,0.1,0.3,0.2,0.5
						c0.1,0.2-0.5,0.8,0.1,0.2c0.7-0.6,0.9-0.8,0.9-0.8l0.4-0.3c0,0,0.1-0.5,0.7-0.2c0.5,0.3,0.6,0.2,0.7,0.5
						c0.1,0.3-0.5,0.7-0.2,0.9c0.3,0.1,1.2,0,1.5,0.1c0.2,0.1,0.5,0.3,0.5,0.7c0,0.4,0,1.1,0.2,1.2c0.2,0.2,0,0.7,0,1.1
						c0,0.4,0.8,0.8,0.9,0.9c0.2,0,0.9,0.4,1.1,0.6c0.2,0.2-0.1,0.5,0.3,0.8c0.4,0.2,0.3,1.2,0.3,1.2s-0.1,0.9-0.2,1
						c-0.2,0.2-0.2,0.6,0,0.8c0.3,0.1,1,0.5,1,0.5s-0.6,0.5,0,0.9c0.6,0.4,1.1,0.8,1.3,1c0.1,0.2-0.6,0.5,0.2,0.7
						c0.8,0.2,1.5,0.2,1.8,0.6c0.3,0.4-0.1,0.7,0.6,1.5c0.8,0.8,1,1,1.2,1.2c0.2,0.2,0.7,0.3,0.4,0.9c-0.3,0.7-0.5,1.1-1,1.3
						c-0.4,0.2-1.1,1-1.5,1.2c-0.3,0.2-0.7,0.7-0.6,1.2c0.1,0.5,0.2,1.1,0.2,1.4c-0.1,0.3-0.2,1.2-0.5,1.5c-0.3,0.3-0.8,0.8-0.8,0.8
						s0.5,0.7-0.1,1c-0.6,0.3-1.4,0.7-1.8,0.7c-0.4,0-1.2,0.5-1.2,0.5s-0.4,1.5-0.5,1.7c-0.1,0.3-2.1,2.2-1.8,2.8
						c0.3,0.6,0.2,1.2,0,1.6c-0.2,0.3-0.4,0.2-0.6,0.5c-0.2,0.3-1-0.2-0.7,0.7c0.3,0.9,0.5,1.2,0.6,1.7c0.1,0.5,0,0.7,0.2,1.2
						c0.2,0.6,0.3,1.1,0.6,1.5c0.3,0.5,0.7,0.8,0.6,1.2c-0.1,0.4,0.5,1.6-0.4,0.6c-0.8-1-0.1-0.1-1.1-1.5c-1-1.5-1.5-1.1-1.9-2
						c-0.4-0.9-0.2,1.8-0.5-1.4c-0.3-3.2-0.7-2.9-0.8-3.6c-0.1-0.7-0.1,0-0.5-1.6c-0.4-1.7,0-0.5-0.4-1.7c-0.4-1.1-0.8,0.1-0.7-1.6
						c0.1-1.8-0.2-0.7-0.2-2.7c0.1-2,0.9-1.9,0.1-3.1c-0.8-1.2-0.8-0.7-1-1.5c-0.2-0.7,0.1,0-0.3-1.9c-0.5-1.9-1.5-2.9-0.7-5.6
						c0.8-2.7,1-3.2,1-3.2s-1.1-1.5-0.2-3c0.9-1.5,0.9-0.9,0.9-1.5c0-0.6-0.2-0.5-0.5-1.3c-0.3-0.8-0.4-0.7-0.4-1.2
						c0-0.4,0.1-1.3,0.1-1.3l-0.4,0.2c0,0-13.9,35.2,20.8,50.8c0,0-7.8-4.2-8.1-6c0,0,0.3-1.6,0.6-1.5c0.3,0.1,0.8,0.5,1.4,0.2
						c0.6-0.3,1.4-0.6,1.4-0.6l-0.1,0.7c0,0-0.5-0.1,1.2,0.1c1.7,0.2,1.7,0.4,2.3,0.3c0.7-0.1,1.7-1.2,1.9-0.3
						c0.1,0.9-0.6,0.3,0.1,0.9c0.7,0.6,2.3,0.5,2.3,0.5s2.4,0.9,2.8,0.7c0.3-0.2,0.4-0.6,0.9-0.4c0.4,0.2,0.5,1,0.5,1l-1.6,0.4
						l-1.6,0.6c0,0-0.7,0-0.2,0.4c0.4,0.4,0.7,0.4,1.3,0.6c0.6,0.3,1.7,1.8,2.3,1.2c0.5-0.6,0.6-0.7,1-1c0.4-0.4,0.4-0.9,1-0.7
						c0.6,0.2,1.2,0.5,1.2,0.5l-0.8,1c0,0,1.1,0.2,1.5,0.3c0.4,0.1,0.3,0.8,1.1,0.4c0.8-0.4,0.9-0.4,1.5-0.3
						c0.6,0.1,1.6,0.1,1.8,0.2c0.2,0.2,0.7,0.4,1,0.5c0.3,0.1,1.3,1.4,1.6,1.3c0.3-0.1,1.8,0.4,1.8,0.4s-5.3,2.7-14.3,0.3
						c0,0,19.8,6.6,36.5-9.8c16.8-16.4,16-43.6-7.3-59.6c0,0,17.2,12.5,17.1,32.4l-0.3,0.3c-0.4-0.7-0.4-0.4-0.6-1.4
						c-0.2-1,0.1-0.7-0.1-1.4c-0.2-0.7-0.2-0.2-0.5-1c-0.3-0.7-0.4-0.7-0.6-1.1c-0.2-0.4-0.3-1.7-0.4-2.1c-0.2-0.4-0.9-0.7-1.2-0.9
						c-0.3-0.2,0-0.6-0.3-0.2c-0.3,0.4,0.2,1.3,0.2,1.3l-0.4,1.4c0,0,0.2,1.4,0.1,1.8c-0.1,0.3-0.8,1.2-0.8,1.2s-0.5,1-0.9,1.1
						c-0.4,0.1-2.5-0.1-2.5-0.1s-0.4-0.9-0.6-1.6c-0.2-0.7-1.2-1.2-1.3-1.5c-0.1-0.3,0.5-0.7,0.1-1.5c-0.3-0.8,0.1-0.5-0.4-1.3
						c-0.5-0.8-0.5-0.8-0.5-0.8s-1.4-1-1.1,0.1c0.3,1-0.6,1.8-0.2,2c0.4,0.2,0.8-0.1,0.9,0.8c0.1,0.9,0.1,1.2,0.3,1.6
						c0.2,0.3,0,1.5,0.3,1.7c0.3,0.2,1.3,0.4,1.1,0.8c-0.2,0.4-0.9,0.9-0.3,1.2c0.6,0.3,0.6,0.6,0.9,0.6c0.4,0,0.2,0.1,0.8,0
						c0.7-0.1,1.4,0.1,1.4,0.1s0.6,0.8,0.5,1.1c-0.1,0.3-0.7,1.7-0.7,1.7l-1.2,1.2c0,0-0.6,2.6-1.1,2.5c-0.4-0.1-1.3,0.9-1.6,1
						c-0.3,0.1-0.9,1.8-0.9,1.8l-1,0.7c0,0-0.4,1.3-0.5,1.6c0,0.4-0.2,1.8-0.6,2.4c-0.4,0.6-1.5,1.1-1.5,1.1s0.9,1.6,0.2,1.5
						c-0.7,0-1.7,0.8-2,1c-0.2,0.2-0.3,0.8-0.8,0.7c-0.5,0-1.3-0.2-1.3,0.1c-0.1,0.3-0.4,1.3-0.4,1.3l-1.9,1.6l-2,0.9
						c0,0-0.1,1-0.6,0.9c-0.5-0.1-2.5,0.1-2.8,0.3c-0.3,0.2-1.8,0.4-2.2,0.3c-0.4-0.1-0.1,1.3-0.4-0.1c-0.3-1.4,0-0.5-0.3-2
						c-0.2-1.5-0.5-0.5-0.2-1.5c0.3-1,0.1-0.1,0.3-1c0.2-1,0.3-0.2,0.1-1.5c-0.2-1.3-0.2-0.9-0.7-1.8c-0.5-0.9-1.2-0.3-0.5-1.3
						c0.7-1,0.2,0,0.7-1c0.6-1.1,0.3-1.3,1.1-1.6c0.8-0.3,1.5-0.2,1.6-1c0.1-0.7,0.2-1,0.1-1.4c-0.1-0.5-0.5-1.4-0.6-1.6
						c0-0.3-0.1-0.1-0.4-1c-0.3-0.9-0.5-1.4-0.5-1.4s0.3-1.9,0.5-2.5c0.2-0.7-0.4,0.4,0.2-0.7c0.6-1,0.9-1.7,0.9-1.7s-1-1.2-1.6-1.3
						c-0.5-0.1-0.7,0.7-1.3-0.1c-0.6-0.8-0.3-1.2-0.5-1.4c-0.2-0.2-0.7-0.5-1.2-0.3c-0.5,0.2-1.5,0-2.4,0.1c-0.9,0.1-1.1,0-2.1-0.3
						c-1-0.3-2.3-0.3-3-0.9c-0.7-0.6-0.9-0.1-1-1c-0.1-1,0.2-0.8-0.4-1.4c-0.7-0.6-0.9-0.4-0.8-1.2c0.1-0.8,0.5-0.5,0.1-1.4
						c-0.4-0.9,0.2,0.4-0.4-0.9c-0.7-1.3-1.2-0.5-0.7-1.3c0.6-0.8,0.7-0.2,1-1.2c0.3-1,1.4,0.9,1.1-1.5c-0.4-2.3-0.7-2,0.6-3.3
						c1.3-1.3,2.6-1.5,2.8-1.8c0.3-0.3,0.9-1.1,1.3-1.2c0.4-0.2,0.2-0.5,1-0.2c0.8,0.3,1.7,0.2,2.4-0.2c0.7-0.4,1.6-1,1.9-0.9
						c0.4,0,0.1,0.1,1,0.2c0.8,0,1,0,1.5,0.2c0.5,0.1-0.6,0,1,0.2c1.5,0.2,1.2,0.1,1.5,0.2c0.3,0.1,0.1,0.1,0.7,0.4
						c0.6,0.3,0.9-1.1,0.6,0.3c-0.3,1.3-1,1.7,0,2.1c1,0.4,0,0.1,1,0.4c1,0.3,0.7,0.4,1.2,0.8c0.4,0.4,0.6,0.8,1.4,1
						c0.8,0.2-0.7,1,0.8,0.2c1.4-0.8-0.5-1.5,1.4-0.8c1.9,0.7,2.1,1.2,2.5,1.2c0.4-0.1,0.4,0.3,1.4,0.1c1-0.2,1.1-0.2,1.4,0.1
						c0.3,0.3,0.1,1,0.6,0.4c0.6-0.7,1.2-0.2,0.3-1c-0.9-0.8-1.4-0.3-1.4-1c0-0.7,1-0.3,0-0.7c-1-0.5-0.8-0.4-1.5-0.9
						c-0.7-0.5-1.8,0.3-1.8-0.5c0-0.8-1.9,0,0-0.8c1.8-0.9,1.4-1.6,2.2-1c0.9,0.5,0.4,1.3,1.1,1c0.8-0.3,2-0.4,1.1-1.5
						c-0.9-1.1-0.2-0.5-1.2-1.4c-1-0.8-2.7,1.4-3.1,0.9c-0.4-0.5-0.6-0.8-1-0.7c-0.4,0.1-0.7,1-0.9,1.7c-0.3,0.7,0.4,1-0.6,0.2
						c-1-0.8,1.3,0.1-1-1.6c-2.2-1.6-3.2-1.6-3.6-1.4c-0.4,0.2-0.9,0-1.3,0.2c-0.3,0.2,0.5,1.1-0.3,0.2c-0.9-0.9-2.2-0.2-2.2-0.2
						s-0.3-0.3-0.8,0c-0.5,0.2-1.5,0.2-1.9-0.1c-0.5-0.3-1.7-0.3-0.4-1.2c1.3-0.9,0.4-0.4,2-0.6c1.6-0.2,3.8,0.3,2-0.6
						c-1.8-1,1.2-0.1-1-2.1c-2.2-1.9-2.7-0.3-2.2-1.9c0.5-1.6,0.3-1.8-0.2-1.8c-0.5-0.1-2.2-0.2-2.8-0.2c-0.6-0.1-0.1,0.6-1-0.4
						c-0.9-1-1.6-0.1-0.9-1c0.7-0.9,0.9-1.1,1.7-1.5c0.9-0.4,1.3-2.7,2.8-1.4c1.5,1.3,0.9,0.9,2.2,1.4c1.3,0.5,2,0.4,2.1,0.1
						c0.1-0.3-1.3-1.5-1.3-1.5s-0.6,0-0.3-0.2c0.2-0.2,0.7-0.6,0.7-0.6l-0.4-0.6C65.5,707.5,60.7,706.2,59.4,706.1z"/>
				</g>
				<g>
					<path class="st0" d="M46.9,788.4l-0.2,0.9l-0.5,1.7l-5.9,21H24.8c-6.3-2.7-8.5-5-8.3-6.8c0.3-2.7,5.6-4.1,11.1-4.4
						c5.5-0.3,8.9-4,8.9-4l2.1-7.6l0.3-1.1l5.3,0.2l1,0L46.9,788.4z"/>
					<path class="st0" d="M57.2,812H37.6l6-21.5l0.6-2.2l0.2-0.6l0.9,0.6l1.4,1l2.2,1.6l-0.1,0.5l-2.3,8.1c0,0,0.6,4.8,5.1,8
						C53.5,808.9,55.6,810.4,57.2,812z"/>
				</g>
			</g>
		</g>
		<g>
			<g>
				<path class="st0" d="M93.1,712.1l-4.5,3.5c8.2,10.6,11.5,24.7,7.6,38.6c-6.5,23.1-30.6,36.6-53.7,30.1
					c-13.6-3.8-23.9-13.8-28.7-26l-5.2,2.2c5.2,13.1,15.9,23.8,30.1,28.5c0.8,0.3,1.5,0.5,2.3,0.7c0.9,0.2,1.8,0.5,2.7,0.7
					c0.8,0.2,1.7,0.4,2.5,0.5c0.9,0.1,1.7,0.3,2.6,0.4c23.6,2.7,46.3-12,52.9-35.6C106.1,740.1,102.4,724.1,93.1,712.1z"/>
				<path class="st0" d="M89.8,726.6C89.8,726.5,89.8,726.5,89.8,726.6c-4.7-9.8-13.4-17.5-24.6-20.7c-20.8-5.8-42.3,6.2-48.2,27
					c-5.8,20.8,6.2,42.3,27,48.2c6.4,1.8,12.9,1.9,18.9,0.5c0.1,0,0.2,0,0.2,0c13.5-3.1,25-13.2,29-27.5
					C94.9,744.5,93.8,734.9,89.8,726.6z M90.5,753.6c-4.1,14.6-16.3,24.7-30.4,26.7c0,0,0,0,0,0c-5,0.8-10.3,0.5-15.5-1
					c-4.3-1.2-8.2-3.1-11.6-5.6h0c-12.4-8.9-18.5-24.9-14.1-40.4c0.4-1.6,1-3.2,1.7-4.7c0,0,0,0,0,0c1-2.3,2.2-4.5,3.6-6.5
					c0.7-1.1,1.5-2.1,2.4-3c0,0,0,0,0,0c4.6-5.3,10.6-9.2,17.3-11.3c0,0,0,0,0,0c6.6-2,13.8-2.2,21-0.2c0.4,0.1,0.7,0.2,1.1,0.3
					c15,4.7,25,18.2,26,33.1c0,0,0,0,0,0C92,745.2,91.6,749.4,90.5,753.6z"/>
				<path class="st0" d="M59.4,706.1c0,0-13.1-1.9-24.5,5.5c0,0,8.6-5,12.6-3.9l0.8,0.6c0,0-0.2,0.3-0.4,0.4
					c-0.2,0.1-0.9,0.6-0.9,0.8c0,0.2-0.2,0.7-0.2,0.7l-0.4,0.3c0,0-0.3,0-0.5,0.2c-0.1,0.1-0.3,0.1-0.4,0.4
					c-0.1,0.3-0.1,0.7-0.1,0.7l-0.2,0.7l-0.3,0.4l-0.7,0.2c0,0-0.7-0.1-0.9-0.3c-0.2-0.2-0.2-0.7-0.2-0.7l0.9-0.3
					c0,0,0.1-0.1-0.1-0.3c-0.2-0.2,0-0.6-0.4-0.6c-0.4,0-1.2,0.3-1.2,0.3l-0.8,0.3c0,0-0.5,0.7-0.4,0.7c0.1,0,0.4,0.3,0.4,0.3
					s0,0.2,0,0.5c-0.1,0.2-0.4,0.6-0.4,0.6s-0.2,0.2-0.6,0c-0.4-0.2-0.8-0.4-1-0.6c-0.2-0.2-0.5-0.4-0.7-0.3c-0.3,0-0.4,0.1-0.5,0.2
					c-0.1,0.1-1.1,0.4-1.1,0.4s-0.3,0-0.4,0.2c0,0.2-0.5,0.7-0.5,0.7s-0.4,0.2-1,0.2c-0.6,0-0.8,0.1-0.8,0.1l-0.5,0.6
					c0,0-0.5,0.2-0.9,0.5c-0.4,0.3-1.5,0.7-1.6,0.7c-0.1,0-0.6,0.3-0.8,0.6c-0.2,0.3-0.3,0.8-0.5,1c-0.2,0.1-0.5,0.6-0.6,0.9
					c-0.1,0.3-0.5,0.7-0.7,0.8c-0.2,0.1-0.5,0.3-0.7,0.3c-0.1,0-1,0-1.3,0.1c-0.3,0.1-0.6,0.5-0.6,0.6c0,0.1,0.3,0.5,0.4,0.6
					c0.1,0,0.5,0.3,0.5,0.3s-0.2,0.7-0.2,0.8c0,0.1-0.5,0.7-0.2,0.8c0.3,0.1,0.6,0.3,0.6,0.3l0.6,0.4l0.5,0.6l0.3,0.4
					c0,0-0.2,0.4-0.3,0.5c-0.1,0.1-0.4,0.4-0.5,0.3c-0.1-0.1-0.1-0.1-0.1-0.4c0-0.3,0-0.5-0.2-0.6c-0.3-0.2-0.7,0-0.8-0.1
					c-0.1-0.1-0.3-0.2-0.5-0.5c-0.2-0.3-0.3,0.1-0.2-0.3c0.2-0.4,0.4-0.5,0.3-0.7c0-0.2-0.2-0.7-0.4-0.7c-0.2,0,0,0.4-0.2,0
					c-0.2-0.4-0.3-0.6-0.4-0.6c-0.1,0-0.3,0-0.3-0.2s0.3-0.6,0.4-0.8c0.1-0.2,0.3-0.5,0.3-0.7c0-0.2,0.5-1.2,0.5-1.2
					s-1.8,1.9-2.7,3.5c0,0,0.5,0.1,0.4,0.4c-0.1,0.3,0,0.6-0.2,0.9c-0.1,0.3-0.1,0.2-0.4,1.1c-0.3,0.9-0.1,1.2-0.3,1.5
					c-0.2,0.3-0.5,0.6-0.6,0.9c-0.2,0.3-0.1,1.3,0,1.5c0.1,0.2,0.1,0.3,0.2,0.5c0.1,0.2-0.5,0.8,0.1,0.2c0.7-0.6,0.9-0.8,0.9-0.8
					l0.4-0.3c0,0,0.1-0.5,0.7-0.2c0.5,0.3,0.6,0.2,0.7,0.5c0.1,0.3-0.5,0.7-0.2,0.9c0.3,0.1,1.2,0,1.5,0.1c0.2,0.1,0.5,0.3,0.5,0.7
					c0,0.4,0,1.1,0.2,1.2c0.2,0.2,0,0.7,0,1.1c0,0.4,0.8,0.8,0.9,0.9c0.2,0,0.9,0.4,1.1,0.6c0.2,0.2-0.1,0.5,0.3,0.8
					c0.4,0.2,0.3,1.2,0.3,1.2s-0.1,0.9-0.2,1c-0.2,0.2-0.2,0.6,0,0.8c0.3,0.1,1,0.5,1,0.5s-0.6,0.5,0,0.9c0.6,0.4,1.1,0.8,1.3,1
					c0.1,0.2-0.6,0.5,0.2,0.7c0.8,0.2,1.5,0.2,1.8,0.6c0.3,0.4-0.1,0.7,0.6,1.5c0.8,0.8,1,1,1.2,1.2c0.2,0.2,0.7,0.3,0.4,0.9
					c-0.3,0.7-0.5,1.1-1,1.3c-0.4,0.2-1.1,1-1.5,1.2c-0.3,0.2-0.7,0.7-0.6,1.2c0.1,0.5,0.2,1.1,0.2,1.4c-0.1,0.3-0.2,1.2-0.5,1.5
					c-0.3,0.3-0.8,0.8-0.8,0.8s0.5,0.7-0.1,1c-0.6,0.3-1.4,0.7-1.8,0.7c-0.4,0-1.2,0.5-1.2,0.5s-0.4,1.5-0.5,1.7
					c-0.1,0.3-2.1,2.2-1.8,2.8c0.3,0.6,0.2,1.2,0,1.6c-0.2,0.3-0.4,0.2-0.6,0.5c-0.2,0.3-1-0.2-0.7,0.7c0.3,0.9,0.5,1.2,0.6,1.7
					c0.1,0.5,0,0.7,0.2,1.2c0.2,0.6,0.3,1.1,0.6,1.5c0.3,0.5,0.7,0.8,0.6,1.2c-0.1,0.4,0.5,1.6-0.4,0.6c-0.8-1-0.1-0.1-1.1-1.5
					c-1-1.5-1.5-1.1-1.9-2c-0.4-0.9-0.2,1.8-0.5-1.4c-0.3-3.2-0.7-2.9-0.8-3.6c-0.1-0.7-0.1,0-0.5-1.6c-0.4-1.7,0-0.5-0.4-1.7
					c-0.4-1.1-0.8,0.1-0.7-1.6c0.1-1.8-0.2-0.7-0.2-2.7c0.1-2,0.9-1.9,0.1-3.1c-0.8-1.2-0.8-0.7-1-1.5c-0.2-0.7,0.1,0-0.3-1.9
					c-0.5-1.9-1.5-2.9-0.7-5.6c0.8-2.7,1-3.2,1-3.2s-1.1-1.5-0.2-3c0.9-1.5,0.9-0.9,0.9-1.5c0-0.6-0.2-0.5-0.5-1.3
					c-0.3-0.8-0.4-0.7-0.4-1.2c0-0.4,0.1-1.3,0.1-1.3l-0.4,0.2c0,0-13.9,35.2,20.8,50.8c0,0-7.8-4.2-8.1-6c0,0,0.3-1.6,0.6-1.5
					c0.3,0.1,0.8,0.5,1.4,0.2c0.6-0.3,1.4-0.6,1.4-0.6l-0.1,0.7c0,0-0.5-0.1,1.2,0.1c1.7,0.2,1.7,0.4,2.3,0.3
					c0.7-0.1,1.7-1.2,1.9-0.3c0.1,0.9-0.6,0.3,0.1,0.9c0.7,0.6,2.3,0.5,2.3,0.5s2.4,0.9,2.8,0.7c0.3-0.2,0.4-0.6,0.9-0.4
					c0.4,0.2,0.5,1,0.5,1l-1.6,0.4l-1.6,0.6c0,0-0.7,0-0.2,0.4c0.4,0.4,0.7,0.4,1.3,0.6c0.6,0.3,1.7,1.8,2.3,1.2
					c0.5-0.6,0.6-0.7,1-1c0.4-0.4,0.4-0.9,1-0.7c0.6,0.2,1.2,0.5,1.2,0.5l-0.8,1c0,0,1.1,0.2,1.5,0.3c0.4,0.1,0.3,0.8,1.1,0.4
					c0.8-0.4,0.9-0.4,1.5-0.3c0.6,0.1,1.6,0.1,1.8,0.2c0.2,0.2,0.7,0.4,1,0.5c0.3,0.1,1.3,1.4,1.6,1.3c0.3-0.1,1.8,0.4,1.8,0.4
					s-5.3,2.7-14.3,0.3c0,0,19.8,6.6,36.5-9.8c16.8-16.4,16-43.6-7.3-59.6c0,0,17.2,12.5,17.1,32.4l-0.3,0.3
					c-0.4-0.7-0.4-0.4-0.6-1.4c-0.2-1,0.1-0.7-0.1-1.4c-0.2-0.7-0.2-0.2-0.5-1c-0.3-0.7-0.4-0.7-0.6-1.1c-0.2-0.4-0.3-1.7-0.4-2.1
					c-0.2-0.4-0.9-0.7-1.2-0.9c-0.3-0.2,0-0.6-0.3-0.2c-0.3,0.4,0.2,1.3,0.2,1.3l-0.4,1.4c0,0,0.2,1.4,0.1,1.8
					c-0.1,0.3-0.8,1.2-0.8,1.2s-0.5,1-0.9,1.1c-0.4,0.1-2.5-0.1-2.5-0.1s-0.4-0.9-0.6-1.6c-0.2-0.7-1.2-1.2-1.3-1.5
					c-0.1-0.3,0.5-0.7,0.1-1.5c-0.3-0.8,0.1-0.5-0.4-1.3c-0.5-0.8-0.5-0.8-0.5-0.8s-1.4-1-1.1,0.1c0.3,1-0.6,1.8-0.2,2
					c0.4,0.2,0.8-0.1,0.9,0.8c0.1,0.9,0.1,1.2,0.3,1.6c0.2,0.3,0,1.5,0.3,1.7c0.3,0.2,1.3,0.4,1.1,0.8c-0.2,0.4-0.9,0.9-0.3,1.2
					c0.6,0.3,0.6,0.6,0.9,0.6c0.4,0,0.2,0.1,0.8,0c0.7-0.1,1.4,0.1,1.4,0.1s0.6,0.8,0.5,1.1c-0.1,0.3-0.7,1.7-0.7,1.7l-1.2,1.2
					c0,0-0.6,2.6-1.1,2.5c-0.4-0.1-1.3,0.9-1.6,1c-0.3,0.1-0.9,1.8-0.9,1.8l-1,0.7c0,0-0.4,1.3-0.5,1.6c0,0.4-0.2,1.8-0.6,2.4
					c-0.4,0.6-1.5,1.1-1.5,1.1s0.9,1.6,0.2,1.5c-0.7,0-1.7,0.8-2,1c-0.2,0.2-0.3,0.8-0.8,0.7c-0.5,0-1.3-0.2-1.3,0.1
					c-0.1,0.3-0.4,1.3-0.4,1.3l-1.9,1.6l-2,0.9c0,0-0.1,1-0.6,0.9c-0.5-0.1-2.5,0.1-2.8,0.3c-0.3,0.2-1.8,0.4-2.2,0.3
					c-0.4-0.1-0.1,1.3-0.4-0.1c-0.3-1.4,0-0.5-0.3-2c-0.2-1.5-0.5-0.5-0.2-1.5c0.3-1,0.1-0.1,0.3-1c0.2-1,0.3-0.2,0.1-1.5
					c-0.2-1.3-0.2-0.9-0.7-1.8c-0.5-0.9-1.2-0.3-0.5-1.3c0.7-1,0.2,0,0.7-1c0.6-1.1,0.3-1.3,1.1-1.6c0.8-0.3,1.5-0.2,1.6-1
					c0.1-0.7,0.2-1,0.1-1.4c-0.1-0.5-0.5-1.4-0.6-1.6c0-0.3-0.1-0.1-0.4-1c-0.3-0.9-0.5-1.4-0.5-1.4s0.3-1.9,0.5-2.5
					c0.2-0.7-0.4,0.4,0.2-0.7c0.6-1,0.9-1.7,0.9-1.7s-1-1.2-1.6-1.3c-0.5-0.1-0.7,0.7-1.3-0.1c-0.6-0.8-0.3-1.2-0.5-1.4
					c-0.2-0.2-0.7-0.5-1.2-0.3c-0.5,0.2-1.5,0-2.4,0.1c-0.9,0.1-1.1,0-2.1-0.3c-1-0.3-2.3-0.3-3-0.9c-0.7-0.6-0.9-0.1-1-1
					c-0.1-1,0.2-0.8-0.4-1.4c-0.7-0.6-0.9-0.4-0.8-1.2c0.1-0.8,0.5-0.5,0.1-1.4c-0.4-0.9,0.2,0.4-0.4-0.9c-0.7-1.3-1.2-0.5-0.7-1.3
					c0.6-0.8,0.7-0.2,1-1.2c0.3-1,1.4,0.9,1.1-1.5c-0.4-2.3-0.7-2,0.6-3.3c1.3-1.3,2.6-1.5,2.8-1.8c0.3-0.3,0.9-1.1,1.3-1.2
					c0.4-0.2,0.2-0.5,1-0.2c0.8,0.3,1.7,0.2,2.4-0.2c0.7-0.4,1.6-1,1.9-0.9c0.4,0,0.1,0.1,1,0.2c0.8,0,1,0,1.5,0.2
					c0.5,0.1-0.6,0,1,0.2c1.5,0.2,1.2,0.1,1.5,0.2c0.3,0.1,0.1,0.1,0.7,0.4c0.6,0.3,0.9-1.1,0.6,0.3c-0.3,1.3-1,1.7,0,2.1
					c1,0.4,0,0.1,1,0.4c1,0.3,0.7,0.4,1.2,0.8c0.4,0.4,0.6,0.8,1.4,1c0.8,0.2-0.7,1,0.8,0.2c1.4-0.8-0.5-1.5,1.4-0.8
					c1.9,0.7,2.1,1.2,2.5,1.2c0.4-0.1,0.4,0.3,1.4,0.1c1-0.2,1.1-0.2,1.4,0.1c0.3,0.3,0.1,1,0.6,0.4c0.6-0.7,1.2-0.2,0.3-1
					c-0.9-0.8-1.4-0.3-1.4-1c0-0.7,1-0.3,0-0.7c-1-0.5-0.8-0.4-1.5-0.9c-0.7-0.5-1.8,0.3-1.8-0.5c0-0.8-1.9,0,0-0.8
					c1.8-0.9,1.4-1.6,2.2-1c0.9,0.5,0.4,1.3,1.1,1c0.8-0.3,2-0.4,1.1-1.5c-0.9-1.1-0.2-0.5-1.2-1.4c-1-0.8-2.7,1.4-3.1,0.9
					c-0.4-0.5-0.6-0.8-1-0.7c-0.4,0.1-0.7,1-0.9,1.7c-0.3,0.7,0.4,1-0.6,0.2c-1-0.8,1.3,0.1-1-1.6c-2.2-1.6-3.2-1.6-3.6-1.4
					c-0.4,0.2-0.9,0-1.3,0.2c-0.3,0.2,0.5,1.1-0.3,0.2c-0.9-0.9-2.2-0.2-2.2-0.2s-0.3-0.3-0.8,0c-0.5,0.2-1.5,0.2-1.9-0.1
					c-0.5-0.3-1.7-0.3-0.4-1.2c1.3-0.9,0.4-0.4,2-0.6c1.6-0.2,3.8,0.3,2-0.6c-1.8-1,1.2-0.1-1-2.1c-2.2-1.9-2.7-0.3-2.2-1.9
					c0.5-1.6,0.3-1.8-0.2-1.8c-0.5-0.1-2.2-0.2-2.8-0.2c-0.6-0.1-0.1,0.6-1-0.4c-0.9-1-1.6-0.1-0.9-1c0.7-0.9,0.9-1.1,1.7-1.5
					c0.9-0.4,1.3-2.7,2.8-1.4c1.5,1.3,0.9,0.9,2.2,1.4c1.3,0.5,2,0.4,2.1,0.1c0.1-0.3-1.3-1.5-1.3-1.5s-0.6,0-0.3-0.2
					c0.2-0.2,0.7-0.6,0.7-0.6l-0.4-0.6C65.5,707.5,60.7,706.2,59.4,706.1z"/>
			</g>
		</g>
	</g>
	<g>
		<path class="st0" d="M272.4,656.4c0.4,1-0.5,2.3-1.9,2.8l-10.3,3.8c-1.4,0.5-2.9,0.1-3.3-0.9l0,0c-0.4-1,0.5-2.3,1.9-2.8l10.3-3.8
			C270.6,655,272,655.4,272.4,656.4L272.4,656.4z"/>
		<path class="st0" d="M273.9,660.4c0.4,1-0.5,2.3-1.9,2.8l-10.3,3.8c-1.4,0.5-2.9,0.1-3.3-0.9l0,0c-0.4-1,0.5-2.3,1.9-2.8l10.3-3.8
			C272,659,273.5,659.4,273.9,660.4L273.9,660.4z"/>
		<path class="st0" d="M272.3,665.5c0.4,1,0,2.1-0.9,2.4l-6.2,2.3c-0.9,0.3-1.9-0.3-2.2-1.3l0,0c-0.4-1,0-2.1,0.9-2.4l6.2-2.3
			C270.9,663.9,271.9,664.5,272.3,665.5L272.3,665.5z"/>
		<path class="st0" d="M242.3,598L242.3,598c0,0-0.4,0.1-0.6,0.2c0,0-0.1,0-0.1,0l0,0c-0.1,0-0.3,0.1-0.7,0.2l0,0
			c-31.9,12.8-12.2,41.9-0.5,46.5c11.8,4.7,15.2,14.8,15.2,14.8l7.7-2.9l1.3-0.5l7.1-2.6c0,0-4.4-9.8,1.6-21
			C279.2,621.7,274.8,586.8,242.3,598z M268.9,621.9c-0.1-17-18-19.9-18-19.9C274.2,597.4,268.9,621.9,268.9,621.9z"/>
	</g>
	<g>
		<path class="st0" d="M65.8,17.9C56,9.2,41.1,10,32.4,19.7c-8,8.9-7.9,22.2-0.4,31c0.7,0.8,1.4,1.6,2.2,2.3c0.8,0.7,1.6,1.4,2.5,2
			c9.6,6.5,22.8,5.1,30.8-3.8C76.3,41.5,75.5,26.6,65.8,17.9z M64.3,48.3c-7.1,7.9-19.2,8.6-27.1,1.5c-7.9-7.1-8.6-19.2-1.5-27.1
			c7.1-7.9,19.2-8.6,27.1-1.5C70.7,28.2,71.4,40.4,64.3,48.3z"/>
		<rect x="16.8" y="56.5" transform="matrix(0.667 -0.745 0.745 0.667 -35.0668 40.9732)" class="st0" width="23" height="6.4"/>
		<path class="st0" d="M17.1,79.9c-1.9,2.1-5.1,2.3-7.2,0.4l0,0c-2.1-1.9-2.3-5.1-0.4-7.2l14.5-16.2c1.9-2.1,5.1-2.3,7.2-0.4l0,0
			c2.1,1.9,2.3,5.1,0.4,7.2L17.1,79.9z"/>
	</g>
	<path class="st0" d="M375,37.3L349.2,43c0.3,2.4,0.2,4.9-0.4,7.4c-2.1,9.4-10,16-19.1,16.9l-3.6,36.1c6.1,1.5,9.9,7.6,8.5,13.8
		c-1.4,6.2-7.6,10.2-13.9,8.8c-6.2-1.4-10.2-7.6-8.8-13.9c1.1-4.8,4.9-8.2,9.5-8.9l3.6-35.9c-0.8-0.1-1.6-0.2-2.4-0.4
		c-6.5-1.5-11.6-5.7-14.5-11.1L281.7,67c0.3,1.4,0.4,2.9,0.2,4.4c-1,5.6-6.4,9.3-12,8.2c-5.6-1-9.3-6.4-8.2-12c1-5.6,6.4-9.2,12-8.2
		c2.5,0.5,4.7,1.8,6.1,3.7l26.8-11.3c-1-3.5-1.2-7.2-0.4-11c0.2-1.1,0.6-2.1,0.9-3.1l-34.4-18c-3.9,5-10.5,7.5-17.1,6.1
		c-9.2-2.1-14.9-11.2-12.9-20.3c0.5-2,1.2-3.8,2.3-5.4h28.7c2.4,3.7,3.3,8.3,2.3,12.9c-0.1,0.4-0.2,0.7-0.3,1l34.7,18.1
		c5.1-6.4,13.5-9.7,22-7.8c7.8,1.8,13.7,7.5,16,14.5l26.7-6V37.3z"/>
	<g>
		<g>
			<path class="st0" d="M154.5,564.1v-6.2l-7.4-1.8c-0.5-1.9-1.2-3.6-2.2-5.2l3.9-5.8l-4.4-4.4l-6.1,3.7c-1.5-0.9-3.2-1.6-4.9-2.1
				l-1.4-7h-6.2l-1.7,7c-1.9,0.5-3.7,1.2-5.4,2.2l-5.9-4l-4.4,4.4l3.7,6.1c-1,1.6-1.7,3.4-2.2,5.3l-6.6,1.3v6.2l6.5,1.6
				c0.5,1.9,1.2,3.7,2.1,5.3l-4,6l4.4,4.4l6.2-3.7c1.7,1,3.6,1.8,5.6,2.3l1.3,6.8h6.2l1.7-7c1.8-0.5,3.5-1.2,5.1-2.2l5.9,3.9
				l4.4-4.4l-3.7-6.2c1-1.6,1.7-3.3,2.1-5.1L154.5,564.1z M128.9,573.8c-7,0-12.7-5.7-12.7-12.7c0-7,5.7-12.7,12.7-12.7
				c7,0,12.7,5.7,12.7,12.7C141.5,568.1,135.8,573.8,128.9,573.8z"/>
		</g>
		<g>
			<path class="st0" d="M189.9,571v-4.2l-5-1.2c-0.3-1.2-0.8-2.4-1.5-3.5l2.6-3.9l-2.9-2.9l-4.1,2.5c-1-0.6-2.1-1.1-3.3-1.4
				l-0.9-4.7h-4.2l-1.2,4.7c-1.3,0.3-2.5,0.8-3.6,1.5l-4-2.7L159,558l2.5,4.1c-0.7,1.1-1.2,2.3-1.5,3.6l-4.4,0.9v4.2l4.4,1.1
				c0.3,1.3,0.8,2.5,1.4,3.5l-2.7,4l2.9,2.9l4.2-2.5c1.1,0.7,2.4,1.2,3.7,1.5l0.9,4.6h4.2l1.2-4.7c1.2-0.3,2.4-0.8,3.4-1.5l3.9,2.7
				l2.9-2.9l-2.5-4.1c0.6-1.1,1.1-2.2,1.4-3.5L189.9,571z M172.6,577.5c-4.7,0-8.5-3.8-8.5-8.5c0-4.7,3.8-8.5,8.5-8.5
				s8.5,3.8,8.5,8.5C181.2,573.7,177.3,577.5,172.6,577.5z"/>
		</g>
	</g>
	<g>
		<g>
			<polygon class="st0" points="9.8,136.4 0,147.1 0,116.4 6.6,118.3 			"/>
		</g>
		<g>
			<polygon class="st0" points="65.5,152.8 52.8,166.6 35.8,161.6 32,142.7 45.2,129.7 62.2,134.7 			"/>
			<polygon class="st0" points="55.4,187.1 42.7,200.9 25.7,195.9 21.8,177 35.1,164.1 52.1,169.1 			"/>
			<polygon class="st0" points="33.1,161.4 20.5,175.2 3.4,170.2 0,153.2 0,150.9 12.9,138.3 29.9,143.3 			"/>
		</g>
		<g>
			<polygon class="st0" points="23.1,197.7 10.4,211.4 0,208.4 0,177.4 2.8,174.6 19.8,179.6 			"/>
			<polygon class="st0" points="13,232 0.3,245.8 0,245.7 0,211 9.7,213.9 			"/>
		</g>
	</g>
	<path class="st0" d="M116.9,617.1c0.5,0.8,0.6,1.7,0.4,2.7c-0.5,1.9-2.4,3-4.3,2.5c-1.9-0.5-3-2.4-2.5-4.3c0.2-0.9,0.8-1.7,1.6-2.2
		l-5.6-1.4c0.5,0.8,0.6,1.7,0.4,2.7c-0.5,1.9-2.4,3-4.3,2.5c-1.9-0.5-3-2.4-2.5-4.3c0.2-0.9,0.8-1.7,1.6-2.2l-5.7-1.4
		c0.5,0.8,0.6,1.7,0.4,2.7c-0.5,1.9-2.4,3-4.3,2.5s-3-2.4-2.5-4.3c0.2-0.9,0.8-1.7,1.6-2.2l-5.6-1.4c0.5,0.8,0.6,1.7,0.4,2.7
		c-0.5,1.9-2.4,3-4.3,2.5c-1.9-0.5-3-2.4-2.5-4.3c0.2-0.9,0.8-1.7,1.6-2.2l-5.6-1.4c0.5,0.8,0.6,1.7,0.4,2.7c-0.5,1.9-2.4,3-4.3,2.5
		c-1.9-0.5-3-2.4-2.5-4.3c0.2-0.9,0.8-1.7,1.6-2.2l-5.6-1.4c0.5,0.8,0.6,1.7,0.4,2.7c-0.5,1.9-2.4,3-4.3,2.5c-1.9-0.5-3-2.4-2.5-4.3
		c0.2-1,0.8-1.7,1.6-2.2l-4.8-1.2l-13.5,52.6c-1.2,4.7,1.6,9.5,6.3,10.7l49.4,12.7c4.7,1.2,9.4-1.6,10.7-6.3l13.5-52.6L116.9,617.1z
		 M106.3,661c-0.1,0.4-0.5,0.7-1,0.6l-57.4-14.8c-0.4-0.1-0.7-0.5-0.6-1s0.5-0.7,1-0.6l57.4,14.8C106.2,660.1,106.4,660.5,106.3,661
		z M108.5,652.5c-0.1,0.4-0.5,0.7-1,0.6l-57.4-14.8c-0.4-0.1-0.7-0.5-0.6-1c0.1-0.4,0.5-0.7,1-0.6l57.4,14.8
		C108.4,651.6,108.6,652.1,108.5,652.5z M110.7,644c-0.1,0.4-0.5,0.7-1,0.6l-57.4-14.8c-0.4-0.1-0.7-0.5-0.6-1s0.5-0.7,1-0.6
		l57.4,14.8C110.5,643.2,110.8,643.6,110.7,644z M112.9,635.6c-0.1,0.4-0.6,0.7-1,0.6l-57.4-14.8c-0.4-0.1-0.7-0.6-0.6-1
		c0.1-0.4,0.5-0.7,1-0.6l57.4,14.8C112.7,634.7,113,635.1,112.9,635.6z"/>
	<g>
		<rect x="74.7" y="208.7" class="st0" width="14" height="14"/>
		<rect x="93.3" y="199.4" class="st0" width="14" height="23.3"/>
		<rect x="111.9" y="190.1" class="st0" width="14" height="32.6"/>
		<rect x="130.6" y="180.8" class="st0" width="14" height="41.9"/>
		<polygon class="st0" points="134.3,165.4 120.5,165.4 102.4,178.9 93,174.2 70,193.4 70,199.4 93.6,179.8 102.9,184.4 122,170 
			136.2,170 144.5,161.7 144.5,155.1 		"/>
	</g>
	<path class="st0" d="M331.8,266.2H375v-5h-47.4c-4.1,0-7.4,3.3-7.4,7.4v38.7c0,4.1,3.3,7.4,7.4,7.4h29.5v7.1h-13.2
		c-4.1,0-7.4,3.3-7.4,7.4v1c0,4.1,3.3,7.4,7.4,7.4H375v-27.7h-43.2c-3.3,0-6-2.7-6-6v-31.5C325.8,268.8,328.5,266.2,331.8,266.2z"/>
	<path class="st0" d="M177.2,694.6c-2.8,0-5.1,2.3-5.1,5c0,2.8,2.3,5.1,5.1,5.1c2.8,0,5.1-2.3,5.1-5.1
		C182.2,696.9,180,694.6,177.2,694.6z M177.2,694.6c-2.8,0-5.1,2.3-5.1,5c0,2.8,2.3,5.1,5.1,5.1c2.8,0,5.1-2.3,5.1-5.1
		C182.2,696.9,180,694.6,177.2,694.6z M177.2,694.6c-2.8,0-5.1,2.3-5.1,5c0,2.8,2.3,5.1,5.1,5.1c2.8,0,5.1-2.3,5.1-5.1
		C182.2,696.9,180,694.6,177.2,694.6z M177.2,694.6c-2.8,0-5.1,2.3-5.1,5c0,2.8,2.3,5.1,5.1,5.1c2.8,0,5.1-2.3,5.1-5.1
		C182.2,696.9,180,694.6,177.2,694.6z M177.2,694.6c-2.8,0-5.1,2.3-5.1,5c0,2.8,2.3,5.1,5.1,5.1c2.8,0,5.1-2.3,5.1-5.1
		C182.2,696.9,180,694.6,177.2,694.6z M177.2,694.6c-2.8,0-5.1,2.3-5.1,5c0,2.8,2.3,5.1,5.1,5.1c2.8,0,5.1-2.3,5.1-5.1
		C182.2,696.9,180,694.6,177.2,694.6z M177.2,694.6c-2.8,0-5.1,2.3-5.1,5c0,2.8,2.3,5.1,5.1,5.1c2.8,0,5.1-2.3,5.1-5.1
		C182.2,696.9,180,694.6,177.2,694.6z M177.2,694.6c-2.8,0-5.1,2.3-5.1,5c0,2.8,2.3,5.1,5.1,5.1c2.8,0,5.1-2.3,5.1-5.1
		C182.2,696.9,180,694.6,177.2,694.6z M177.2,694.6c-2.8,0-5.1,2.3-5.1,5c0,2.8,2.3,5.1,5.1,5.1c2.8,0,5.1-2.3,5.1-5.1
		C182.2,696.9,180,694.6,177.2,694.6z M177.2,694.6c-2.8,0-5.1,2.3-5.1,5c0,2.8,2.3,5.1,5.1,5.1c2.8,0,5.1-2.3,5.1-5.1
		C182.2,696.9,180,694.6,177.2,694.6z M177.2,694.6c-2.8,0-5.1,2.3-5.1,5c0,2.8,2.3,5.1,5.1,5.1c2.8,0,5.1-2.3,5.1-5.1
		C182.2,696.9,180,694.6,177.2,694.6z M177.2,694.6c-2.8,0-5.1,2.3-5.1,5c0,2.8,2.3,5.1,5.1,5.1c2.8,0,5.1-2.3,5.1-5.1
		C182.2,696.9,180,694.6,177.2,694.6z M177.2,694.6c-2.8,0-5.1,2.3-5.1,5c0,2.8,2.3,5.1,5.1,5.1c2.8,0,5.1-2.3,5.1-5.1
		C182.2,696.9,180,694.6,177.2,694.6z M177.2,694.6c-2.8,0-5.1,2.3-5.1,5c0,2.8,2.3,5.1,5.1,5.1c2.8,0,5.1-2.3,5.1-5.1
		C182.2,696.9,180,694.6,177.2,694.6z M189.7,719.8c0.4-0.4,0.7-0.8,1.1-1.3c3.7-0.8,7.1-1.9,10.1-3.2c0.9-0.4,1.7-0.8,2.5-1.3
		c6.1-3.5,9.9-8.2,9.9-13.6c0-4.7-2.9-8.9-7.7-12.2c0-0.1,0-0.1,0-0.2c0.2-1,0.3-2,0.3-3c0.6-7.4-1.4-13.4-6-16.3
		c-5.2-3.3-12.5-1.8-19.8,3.3c-4.8-3.7-9.7-6.1-14-6.1c-2.5,0-4.8,0.6-6.7,1.9c-4.5,2.9-6.5,10-5.9,17.7c0,0,0,0,0,0
		c0.8-0.4,1.6-0.9,2.5-1.3c-0.3-6.1,1.4-12,4.8-14.2c1.5-1,3.3-1.5,5.3-1.5c3.6,0,7.7,2,11.8,5.1c-2.8,2.2-5.6,4.9-8.3,8.1
		c-5.1,0.7-9.7,2-13.6,3.8c-0.9,0.4-1.7,0.8-2.5,1.3c-6.2,3.5-10,8.3-10,13.6c0,5.6,4.2,10.6,10.9,14.2c0,0.3-0.1,0.5-0.1,0.8
		c-0.5,7.4,1.4,13.3,6,16.2c5.1,3.2,12.1,1.8,19.3-2.9c3.8,2.2,7.6,3.4,11,3.4c2.5,0,4.8-0.6,6.7-1.9c4.1-2.7,6.2-7.9,6-14.8
		c-0.8,0.5-1.7,0.9-2.5,1.3c0,5.3-1.7,9.3-4.8,11.4c-1.5,1-3.3,1.5-5.3,1.5c-2.7,0-5.7-0.9-8.7-2.4
		C184.6,725.1,187.2,722.6,189.7,719.8z M193.4,715.3c1.1-1.5,2.2-3.1,3.3-4.7c1-1.6,1.9-3.3,2.8-4.9c0.7,2.3,1.1,4.7,1.3,6.9
		C198.6,713.6,196.1,714.5,193.4,715.3z M210.7,700.5c0,4.1-2.8,7.8-7.5,10.7c-0.3-2.9-1.1-5.8-2.1-8.9c1.8-3.9,3.1-7.7,3.9-11.3
		C208.6,693.7,210.7,696.9,210.7,700.5z M173.7,681.1c2.1-2.2,4.2-4.2,6.4-5.8c1.8,1.5,3.5,3.1,5.2,4.8c1.4,0.1,2.7,0.3,4,0.6
		c-2.2-2.5-4.6-4.9-7-7c6.2-4,12.1-5.3,16.2-2.7c3.5,2.2,5.1,6.9,4.8,12.8c0,0.9-0.1,1.8-0.2,2.8c-3.8-2.1-8.5-3.7-13.9-4.6
		c-1.3-0.2-2.6-0.4-4-0.6c-2.2-0.2-4.5-0.3-6.8-0.3c-1.7,0-3.3,0.1-5,0.2C173.6,681.2,173.7,681.1,173.7,681.1z M170.8,684.3
		c0,0,0.1-0.1,0.1-0.2c2.4-0.3,4.9-0.5,7.5-0.5c3.3,0,6.5,0.3,9.5,0.7c1.4,0.2,2.7,0.5,3.9,0.8c4.1,1,7.8,2.4,10.8,4.2
		c-0.6,3-1.6,6.2-2.9,9.4c-1.4-3.3-3.1-6.5-5.1-9.7c-0.9-1.3-0.8-1.3-1.8-2.6c-1.3-0.3-2.6-0.6-3.9-0.8c1.6,1.9,2.1,2.6,3.5,4.8
		c2.5,3.8,4.4,7.7,5.9,11.6c-1.1,2.3-2.4,4.7-3.9,7.1c-1.6,2.5-3.3,4.9-5.1,7c-3.4,0.6-7.1,1-10.9,1c-2.7,0-5.4-0.2-7.9-0.5
		c-1.4-0.2-4-0.7-4-0.7c-3.4-0.7-6.5-1.7-9.2-2.9c0.3-2.5,1-5.1,1.9-7.8c0.9,1.6,1.9,3.3,3,4.9c1.8,2.5,2,2.9,3.5,4.7
		c1.3,0.3,2.6,0.5,4,0.7c-2.2-2.4-3.2-3.3-5.3-6.8c-1.5-2.5-2.8-4.8-3.9-7.1c1.4-3.5,3.2-7,5.4-10.5
		C167.5,688.7,169.1,686.5,170.8,684.3z M146.2,700.5c0-4.1,2.9-7.9,7.7-10.8c0.8-0.5,1.6-0.9,2.4-1.3c3.1-1.5,6.8-2.7,10.9-3.5
		c-0.2,0.2-0.3,0.4-0.5,0.6c-1,1.4-2,2.9-3,4.4c-1.8,2.8-3.3,5.7-4.6,8.5c-1.1-2.9-1.9-5.8-2.3-8.8c-0.9,0.4-1.7,0.9-2.4,1.3
		c0.6,3.8,1.6,7.4,3.2,11c-1.3,3.4-2.2,6.8-2.8,9.9C149.5,708.9,146.2,704.9,146.2,700.5z M185.5,720.5c-2,2-4,3.7-6,5.1
		c-2-1.3-4.1-2.9-6.1-4.7c-1.4-0.1-2.8-0.3-4.1-0.5c2.5,2.6,5.2,4.9,7.9,6.7c-5.9,3.6-11.5,4.6-15.4,2.1c-3.5-2.2-5-6.8-4.9-12.5
		l0.1-0.9c3.6,1.5,7.7,2.7,12.3,3.3c1.3,0.2,2.7,0.3,4.1,0.4c1.6,0.1,3.3,0.2,5,0.2c2.8,0,5.6-0.2,8.2-0.5
		C186.3,719.7,185.9,720.1,185.5,720.5z M177.2,704.7c2.8,0,5.1-2.3,5.1-5.1c0-2.8-2.3-5-5.1-5c-2.8,0-5.1,2.3-5.1,5
		C172.1,702.5,174.4,704.7,177.2,704.7z M177.2,694.6c-2.8,0-5.1,2.3-5.1,5c0,2.8,2.3,5.1,5.1,5.1c2.8,0,5.1-2.3,5.1-5.1
		C182.2,696.9,180,694.6,177.2,694.6z M177.2,694.6c-2.8,0-5.1,2.3-5.1,5c0,2.8,2.3,5.1,5.1,5.1c2.8,0,5.1-2.3,5.1-5.1
		C182.2,696.9,180,694.6,177.2,694.6z M177.2,694.6c-2.8,0-5.1,2.3-5.1,5c0,2.8,2.3,5.1,5.1,5.1c2.8,0,5.1-2.3,5.1-5.1
		C182.2,696.9,180,694.6,177.2,694.6z M177.2,694.6c-2.8,0-5.1,2.3-5.1,5c0,2.8,2.3,5.1,5.1,5.1c2.8,0,5.1-2.3,5.1-5.1
		C182.2,696.9,180,694.6,177.2,694.6z M177.2,694.6c-2.8,0-5.1,2.3-5.1,5c0,2.8,2.3,5.1,5.1,5.1c2.8,0,5.1-2.3,5.1-5.1
		C182.2,696.9,180,694.6,177.2,694.6z M177.2,694.6c-2.8,0-5.1,2.3-5.1,5c0,2.8,2.3,5.1,5.1,5.1c2.8,0,5.1-2.3,5.1-5.1
		C182.2,696.9,180,694.6,177.2,694.6z M177.2,694.6c-2.8,0-5.1,2.3-5.1,5c0,2.8,2.3,5.1,5.1,5.1c2.8,0,5.1-2.3,5.1-5.1
		C182.2,696.9,180,694.6,177.2,694.6z M177.2,694.6c-2.8,0-5.1,2.3-5.1,5c0,2.8,2.3,5.1,5.1,5.1c2.8,0,5.1-2.3,5.1-5.1
		C182.2,696.9,180,694.6,177.2,694.6z M177.2,694.6c-2.8,0-5.1,2.3-5.1,5c0,2.8,2.3,5.1,5.1,5.1c2.8,0,5.1-2.3,5.1-5.1
		C182.2,696.9,180,694.6,177.2,694.6z M177.2,694.6c-2.8,0-5.1,2.3-5.1,5c0,2.8,2.3,5.1,5.1,5.1c2.8,0,5.1-2.3,5.1-5.1
		C182.2,696.9,180,694.6,177.2,694.6z M177.2,694.6c-2.8,0-5.1,2.3-5.1,5c0,2.8,2.3,5.1,5.1,5.1c2.8,0,5.1-2.3,5.1-5.1
		C182.2,696.9,180,694.6,177.2,694.6z M177.2,694.6c-2.8,0-5.1,2.3-5.1,5c0,2.8,2.3,5.1,5.1,5.1c2.8,0,5.1-2.3,5.1-5.1
		C182.2,696.9,180,694.6,177.2,694.6z"/>
	<g>
		<path class="st0" d="M148.6,106.1c2.3-2,3.9-4.1,4.7-6.1c-3-2.8-7-6.4-11.1-9.7c-0.9-0.1-1.9-0.1-2.9-0.1c0.2,1.9,0.2,4,0.1,6.1
			C143.5,99.5,146.6,102.8,148.6,106.1z"/>
		<path class="st0" d="M117.8,89.7c1.9-0.6,3.9,0.1,4.7,1.5c1.3-0.3,2.6-0.6,3.9-0.9c-3.8-1.7-7.6-3.1-11.3-3.9
			c-1.7,2.6-3.2,5.6-4.4,8.8c1.3-0.6,2.7-1.1,4.1-1.6C114.7,91.9,115.9,90.3,117.8,89.7z"/>
		<path class="st0" d="M138.7,102.9c1.2,0.3,2.2,1.1,2.6,2.3c0.6,1.9-0.7,3.9-2.9,4.6c-0.5,0.1-0.9,0.2-1.4,0.2
			c-0.4,1.4-0.9,2.8-1.4,4.1c4.7-2.1,8.6-4.5,11.7-7c-1.7-2.9-4.5-6-8.1-8.9C139.2,99.7,139,101.3,138.7,102.9z"/>
		<path class="st0" d="M133,116.7c-1.9,0.8-3.9,1.5-6,2.1c-0.4,0.1-0.8,0.2-1.2,0.4c1.8,0.5,3.6,1,5.3,1.3
			C131.7,119.3,132.4,118,133,116.7z"/>
		<path class="st0" d="M107.8,122.3c0.1,0.4,0.2,0.8,0.3,1.2c1.3,4.9,3.7,7.9,6.9,8.8l9-2.8c2.3-1.9,4.4-4.5,6.4-7.7
			c-2.3-0.4-4.7-1.1-7.1-1.9C117.6,121.4,112.4,122.1,107.8,122.3z"/>
		<path class="st0" d="M98.2,104c-0.9,0.7-1.6,1.4-2.3,2.1c-1.1,3.8-2,7.7-2.8,10.9c2.2,2.4,6.8,3.8,12.8,3.8
			c-0.5-3.1-0.6-6.5-0.3-10.1C102.7,108.6,100.2,106.3,98.2,104z"/>
		<path class="st0" d="M115.8,119c-2.6,0.8-5.3-0.4-6-2.6c-0.3-0.9-0.2-1.8,0.1-2.6c-1-0.6-2-1.2-2.9-1.9c-0.2,3.2-0.1,6.3,0.4,9.1
			c4-0.1,8.6-0.7,13.4-1.8c-1-0.4-2-0.8-3-1.2C117.3,118.3,116.6,118.7,115.8,119z"/>
		<path class="st0" d="M113.6,86c-5-1-9.6-1-13.1,0c0.2,0.7,0.5,1.4,0.7,2c0.3,1-1.2,5.3-2.3,8.7c-0.4,1.2-0.9,2.5-1.3,3.9
			c0.3,0.4,0.6,0.9,1,1.4c2.8-2.1,6.3-4.1,10.2-5.9C110.2,92.4,111.8,89,113.6,86z"/>
		<path class="st0" d="M108.2,97.9c-3.3,1.6-6.3,3.4-8.7,5.2c1.7,2,3.8,4,6.3,5.9c0.2-2,0.6-4.1,1.1-6.1
			C107.2,101.2,107.7,99.5,108.2,97.9z"/>
		<path class="st0" d="M132.6,120.8c4.2,0.6,8,0.5,11-0.4c2-0.6,3.5-1.6,4.5-2.9c1.8-2.4,1.6-5.6-0.1-9.1c-3.4,2.7-7.9,5.3-13.1,7.5
			C134.3,117.6,133.5,119.2,132.6,120.8z"/>
		<path class="st0" d="M137.9,95.2c0-1.7,0-3.4-0.2-5c-2.1,0.1-4.4,0.3-6.8,0.6c0.1,0.1,0.2,0.1,0.3,0.2
			C133.7,92.4,135.9,93.8,137.9,95.2z"/>
		<path class="st0" d="M106.2,122.3c-6,0-10.7-1.2-13.4-3.5c-0.4,1.8-0.7,3.4-1,4.5l-0.2,1c-0.8,3.7,0.5,8,3.2,10.4
			c2,1.9,4.5,2.4,7.1,1.7l10.9-3.4c-2.8-1.5-4.9-4.6-6.2-9.1C106.4,123.4,106.3,122.8,106.2,122.3z"/>
		<path class="st0" d="M137.5,88.9c-0.1-0.9-0.3-1.7-0.5-2.5c-0.5-0.4-1-0.7-1.4-1.1c-2.9-2.1-6.5-4.8-6.9-5.8
			c-0.2-0.8-0.5-1.8-0.9-3c-0.7,0-1.5,0.1-2.2,0.3c-3.3,1-6.7,4-9.6,8.2c4.2,1,8.6,2.6,12.9,4.7C131.9,89.3,134.9,89,137.5,88.9z"/>
		<path class="st0" d="M133.4,107.6c-0.6-1.9,0.7-3.9,2.9-4.6c0.3-0.1,0.6-0.1,0.9-0.2c0.3-2,0.6-3.9,0.7-5.8
			c-2.2-1.7-4.8-3.3-7.5-4.8c-0.6-0.3-1.2-0.6-1.8-1c-1.8,0.3-3.7,0.7-5.6,1.2c0.1,1.7-1.1,3.4-3,4c-1.9,0.6-3.9-0.1-4.7-1.6
			c-1.8,0.7-3.5,1.3-5.1,2.1c-0.7,1.9-1.3,4-1.8,6c-0.5,2.4-0.9,4.8-1.1,7.1c1.1,0.8,2.3,1.6,3.5,2.4c0.6-0.7,1.5-1.3,2.5-1.7
			c2.6-0.8,5.3,0.4,6,2.6c0.3,1.1,0.1,2.3-0.5,3.3c1.5,0.7,3,1.3,4.5,1.8c1-0.3,2.1-0.6,3.1-0.9c2.5-0.8,4.9-1.7,7.2-2.6
			c0.7-1.7,1.3-3.4,1.8-5.2C134.6,109.4,133.8,108.6,133.4,107.6z"/>
		<path class="st0" d="M157.3,103.8l-0.7-0.7c-0.6-0.5-1.3-1.2-2.2-2c-1,2.1-2.7,4.2-5.1,6.3c2.1,4.1,2.3,7.9,0.1,10.8
			c-1.2,1.6-3,2.8-5.4,3.5c-3.3,1-7.5,1.2-12.2,0.4c-1.5,2.5-3.1,4.6-4.8,6.4l28.7-8.9c2.5-0.8,4.3-2.7,4.9-5.4
			C161.4,110.6,160.1,106.4,157.3,103.8z"/>
		<path class="st0" d="M124.2,55.4L90.5,65.9l1.5,4.7l3.5-1.1c0.8,2.7,3,10.1,4.7,15.3c3.9-1.2,8.9-1.2,14.3,0c3.2-4.7,7-8,10.8-9.2
			c0.7-0.2,1.5-0.4,2.2-0.4c-1.5-5.1-3.7-11.7-4.5-14.2l2.7-0.8L124.2,55.4L124.2,55.4z"/>
		<path class="st0" d="M133,116.7c0.3-0.6,0.5-1.2,0.8-1.8c-2.3,1-4.7,1.9-7.2,2.6c-1.1,0.3-2.1,0.6-3.1,0.9
			c0.8,0.3,1.5,0.5,2.3,0.7c0.4-0.1,0.8-0.2,1.2-0.4C129,118.2,131,117.5,133,116.7z"/>
	</g>
	<path class="st0" d="M71.3,331.9v-31.5L76,297l-14.5-20.6l-11,7.7L65,304.7l0.1-0.1v27.2H42.3v4.1h51.9v-4.1H71.3z M38.8,301.5
		l-9,6.3l6,8.4l9-6.3L38.8,301.5z M49.4,288.9l-10.6,7.5l10.8,15.3l10.6-7.5L49.4,288.9z M73.4,262.3l-11.8,8.3L82,299.5l11.8-8.3
		L73.4,262.3z"/>
	<path class="st0" d="M287.6,335.7c-2.2,0-4.2,0.8-5.7,2.2l-4.7-5.2c3.1-3.9,4.9-8.9,4.9-14.3c0-8.5-4.6-15.9-11.3-20l5.6-10
		c0.7,0.2,1.4,0.4,2.1,0.4c3.5,0,6.4-2.8,6.4-6.3c0-3.5-2.8-6.3-6.3-6.3c-3.5,0-6.4,2.8-6.4,6.4c0,1.9,0.9,3.6,2.2,4.8l-5.7,10
		c-3-1.4-6.3-2.2-9.8-2.2c-5.3,0-10.3,1.8-14.2,4.8l-5.2-6.6c1.2-1.5,2-3.5,2-5.7c0-5-4.1-9.1-9.1-9.1c-5,0-9.1,4.1-9.1,9.1
		c0,5,4.1,9.1,9.1,9.1c2,0,3.9-0.7,5.4-1.8l5.1,6.5c-4.5,4.2-7.2,10.2-7.2,16.8c0,0.1,0,0.2,0,0.4H230c-0.9-3.1-3.7-5.4-7.2-5.4
		c-4.1,0-7.4,3.3-7.4,7.4c0,4.1,3.3,7.4,7.4,7.4c4,0,7.3-3.2,7.4-7.3h5.6c0.9,8.7,6.8,16,14.6,19.1l-2,4c-1.2-0.5-2.6-0.8-4-0.8
		c-5.9,0-10.7,4.8-10.7,10.7c0,5.9,4.8,10.7,10.7,10.7c5.9,0,10.7-4.8,10.7-10.7c0-3.7-1.9-7-4.8-8.9l2.1-4.3c2,0.6,4.1,0.9,6.3,0.9
		c6.7,0,12.7-2.8,16.9-7.3l4.7,5.1c-0.9,1.4-1.4,3-1.4,4.7c0,4.7,3.8,8.5,8.5,8.5c4.7,0,8.5-3.8,8.5-8.5
		C296.2,339.5,292.3,335.7,287.6,335.7z"/>
	<g>
		<path class="st0" d="M33.8,428.6c-1.9-3-5.9-3.8-8.8-1.9c-3,1.9-3.8,5.9-1.9,8.8c1.9,3,5.9,3.8,8.8,1.9
			C34.9,435.5,35.8,431.5,33.8,428.6z"/>
		<path class="st0" d="M32,437.4c-3,1.9-6.9,1.1-8.8-1.9c-1.9-3-1.1-6.9,1.9-8.8c3-1.9,6.9-1.1,8.8,1.9
			C35.8,431.5,34.9,435.5,32,437.4z"/>
		<path class="st0" d="M111.7,499.3c-2.6-4.1-8-5.2-12.1-2.6c-1.9,1.2-3.2,3.1-3.7,5.1c-0.2,0.9-0.3,1.6-1.6,1.7
			c-2,0.1-5.6,0.4-7,0.5c-2,0.1-2.7-1.6-3.3-2.5c-1.9-2.9-5.3-4.4-8.5-3.9c-0.5,0.1-1.7,0.1-2.4-0.9l-1.9-2.9
			c-0.8-1.2-0.5-2.1,0.2-3.4c1.4-2.7,1.4-6.1-0.4-8.9c-1.2-1.8-1.5-1.9-0.8-3.3c1.6-3.1,5-9.8,5.4-10.6c0.6-1,2-1.4,2.6-1.4
			c1.8,0.1,3.6-0.3,5.2-1.4c1.3-0.8,2.2-1.9,2.9-3.2c0.8-1.5,0.8-2.1,2.4-2.2c1,0,2.4-0.1,3.3-0.1c1.7,0,2.3,1.2,2.6,1.9
			c0.8,1.5,2.1,2.8,3.7,3.6c4.3,2.2,9.6,0.5,11.8-3.8c2.2-4.3,0.5-9.6-3.8-11.8c-4.3-2.2-9.6-0.5-11.8,3.8c-0.7,1.4-0.7,2.1-2.6,2.2
			c-1,0-2.2,0.1-3,0.1c-1.7,0-2.3-1.8-2.8-2.7c-1.9-3-5.3-4.4-8.6-3.9c-0.6,0.1-2.1-0.2-2.7-1.2l-6.4-9.9c-1-1.5-0.3-2.6,0-3.2
			c1.7-2.8,1.8-6.4-0.1-9.3c-0.3-0.5-0.8-2.1-0.4-3c0.4-0.8,1-1.8,1.4-2.6c0.9-1.7,2.4-1.6,3.2-1.6c1.7,0,3.4-0.4,4.9-1.4
			c1.8-1.1,3-2.8,3.5-4.6c0.2-0.6,1.2-1.9,2.2-2c2-0.1,5.1-0.2,6.1-0.2c1.5,0.1,2.1,1.1,2.3,1.6c0.8,2,2.2,3.6,4.2,4.7
			c4.3,2.2,9.6,0.5,11.8-3.8c2.2-4.3,0.5-9.6-3.8-11.8c-4.3-2.2-9.6-0.5-11.8,3.8c-0.2,0.4-0.9,1.2-2.6,1.4
			c-1.2,0.2-4.5,0.2-6.6,0.3c-1.8-0.4-2.1-0.6-2.7-1.5c-1.8-2.8-4.9-4.2-7.9-4c-1.4,0.1-2,0.3-2.9-1.2l-2.2-3.4
			c-1-1.6-0.2-2.8,0.1-3.4c1.7-2.8,1.8-6.4-0.1-9.3c-2.6-4.1-8-5.2-12.1-2.6s-5.2,8-2.6,12.1c1.8,2.7,4.8,4.1,7.8,4
			c1.7-0.1,2.3-0.2,3.1,1l2.4,3.7c1,1.6,0.4,2.4,0.1,2.8c-2.1,2.8-2.3,6.8-0.3,9.9c0.4,0.6,1.3,1.5,0.6,3.3
			c-0.3,0.8-0.8,1.7-1.2,2.4c-0.6,1-2.3,1.5-2.9,1.4c-1.9-0.2-3.9,0.3-5.6,1.4c-1.4,0.9-2.5,2.2-3.2,3.7c-0.3,0.6-0.9,2-3,2.2
			c-1.5,0.1-7.8,0.4-11.2,0.6c-1.9-0.2-2.7-1.3-3.1-1.9c-1.8-2.8-4.9-4.2-8-4c-1,0.1-2.1,0.4-3.2-1.4l-1.7-2.6
			c-1-1.5,0.2-2.8,0.5-3.6c1.2-2.6,1.1-5.9-0.6-8.5c-2.6-4.1-8.1-5.2-12.1-2.6c-4.1,2.6-5.2,8-2.6,12.1c1.8,2.8,5.1,4.3,8.2,4
			c1.2-0.1,2.2-0.5,3.1,0.8l1.5,2.2c1,1.6,0.3,3.2-0.1,3.9c-1.5,2.8-1.6,6.2,0.3,9.1c0.4,0.7,1.4,1.9,0.6,3.8
			c-0.6,1.3-3.3,6.6-4.9,9.6c-1,2-1.4,1.8-3.2,1.8c-1.6,0-3.2,0.5-4.7,1.4c-1.2,0.8-2.1,1.8-2.8,2.9c-0.4,0.7-0.7,2-2.9,2.3
			c-1.1,0.1-2.3,0.2-3.1,0.2H0v4.1c0.1,0,0.2,0,0.4-0.1c0.9-0.1,2.2-0.1,3.2-0.2c1.3,0,1.4,0.9,2.7,2.9c1.9,3,5.3,4.4,8.6,3.9
			c0.6-0.1,1.6-0.5,2.5,0.8l7,10.7c0.5,0.8,0,2.1-0.3,2.6c-1.8,2.8-1.8,6.5,0.1,9.4c0.3,0.5,1.1,1.3,0.3,2.5c-0.4,0.6-1,1.8-1.5,2.8
			c-0.7,1.3-1.9,1.6-2.9,1.6c-1.7,0-3.5,0.4-5.1,1.4c-4,2.6-5.2,8-2.6,12.1c2.1,3.2,5.9,4.6,9.4,3.7c0.5-0.1,1.7-0.4,2.5,0.8
			l1.9,2.8c0.5,0.8,0.1,2.1-0.2,2.5c-2.3,2.9-2.6,7-0.5,10.2c2.6,4,8,5.2,12.1,2.6c4.1-2.6,5.2-8,2.6-12.1c-1.8-2.8-4.9-4.2-8-4
			c-1.3,0.1-1.7-0.1-2.4-1.2l-2.1-3.3c-1.1-1.7-0.4-2.5-0.1-3c1.4-2.7,1.3-6-0.4-8.7c-1-1.6-1.5-1.8-0.7-3.2c0.5-0.9,1-1.9,1.4-2.6
			c0.7-1.4,2-1.2,2.6-1.2c2,0.2,4-0.2,5.8-1.3c1.6-1.1,2.8-2.6,3.4-4.3c0.2-0.5,0.3-1.7,2.2-1.7c1.5,0,8.6-0.4,11.8-0.6
			c1.2-0.1,1.8,0.9,2.6,2.2c1.9,3,5.4,4.4,8.7,3.9c0.6-0.1,1.8-0.3,2.6,0.9l1.8,2.7c0.8,1.2,0.4,2.1-0.2,3.1
			c-1.7,2.8-1.8,6.4,0.1,9.4c0.5,0.8,2,1.9,1,3.8c-0.7,1.2-2.3,4.2-3.2,6.1c-0.7,1.3-1.1,1.3-2.6,1.1c-2-0.3-4.2,0.1-6,1.3
			c-4.1,2.6-5.2,8.1-2.6,12.1s8,5.2,12.1,2.6c4.1-2.6,5.2-8,2.6-12.1c-0.7-1.1-0.8-1.3-0.2-2.5c1-1.9,2.8-5.3,3.6-6.8
			c1.1-2,2.2-1.6,2.9-1.6c1.6,0,3.1-0.5,4.5-1.4c1.4-0.9,2.4-2.1,3.1-3.5c0.3-0.6,0.5-1.9,2.3-2c1.3-0.1,5.9-0.4,8.2-0.5
			c1.4-0.1,1.3,0.2,2,1.2c2.6,4.1,8.1,5.2,12.1,2.6C113.1,508.8,114.3,503.3,111.7,499.3z M75.4,452.3c3-1.9,6.9-1.1,8.8,1.9
			c1.9,3,1.1,6.9-1.9,8.8c-3,1.9-6.9,1.1-8.8-1.9C71.6,458.1,72.4,454.2,75.4,452.3z M57.6,424.8c3-1.9,6.9-1.1,8.8,1.9
			c1.9,3,1.1,6.9-1.9,8.8c-3,1.9-6.9,1.1-8.8-1.9C53.8,430.7,54.6,426.7,57.6,424.8z M25,426.7c3-1.9,6.9-1.1,8.8,1.9
			c1.9,3,1.1,6.9-1.9,8.8c-3,1.9-6.9,1.1-8.8-1.9C21.2,432.5,22.1,428.6,25,426.7z M17.2,466.1c-3,1.9-6.9,1.1-8.8-1.9
			c-1.9-3-1.1-6.9,1.9-8.8c3-1.9,6.9-1.1,8.8,1.9C21,460.3,20.2,464.2,17.2,466.1z M35,493.6c-3,1.9-6.9,1.1-8.8-1.9
			c-1.9-3-1.1-6.9,1.9-8.8c3-1.9,6.9-1.1,8.8,1.9C38.8,487.8,38,491.7,35,493.6z M55.7,482.7c-0.3,0.6-1,2-2.3,2.1
			c-1,0-8,0.4-11.5,0.6c-2.1,0.1-2.4-0.9-3-2c-1.9-2.9-5.2-4.3-8.4-3.9c-0.6,0.1-1.9,0.4-2.7-0.8L20.9,468c-0.8-1.2-0.2-2,0.3-2.7
			c1.7-2.8,1.8-6.4-0.1-9.4c-0.5-0.7-1.7-1.9-0.7-3.8c1-1.9,5-9.8,5-9.8c0.5-1.4,1.4-1.7,3-1.6c1.7,0,3.3-0.4,4.8-1.4
			c1.6-1,2.7-2.5,3.4-4.1c0.5-1.2,1.1-1.9,2.5-2c3.3-0.2,9.8-0.6,11.2-0.5c2,0.1,2.8,1.4,3.3,2.2c1.8,2.9,5.1,4.3,8.3,3.9
			c0.7-0.1,2-0.4,3.2,1.5l6.3,9.8c0.6,0.9,0.2,2.5-0.1,3c-1.7,2.8-1.8,6.4,0.1,9.3c0.4,0.7,1.4,2,0.6,3.4c-0.6,1.1-3.9,7.5-5.4,10.6
			c-0.5,1-1.8,1.4-2.4,1.3c-1.8-0.1-3.7,0.3-5.4,1.4C57.5,479.9,56.4,481.2,55.7,482.7z M67.2,491.8c-3,1.9-6.9,1.1-8.8-1.9
			c-1.9-3-1.1-6.9,1.9-8.8c3-1.9,6.9-1.1,8.8,1.9C71,485.9,70.2,489.9,67.2,491.8z M80.1,511.8c-3,1.9-6.9,1.1-8.8-1.9
			c-1.9-3-1.1-6.9,1.9-8.8c3-1.9,6.9-1.1,8.8,1.9C83.9,505.9,83.1,509.9,80.1,511.8z"/>
	</g>
	<g>
		<path class="st0" d="M375,551.7v-14.5c-3.9-3.9-10.2-7.1-20.3-8.8c-27.5-4.4-52.2,9.6-46,40c0,5.6-11,14.2-8.4,17.1
			c2.7,2.9,7.2,3,7.2,3s-2.9,5.5-1.6,7.1c1.3,1.5,5,0.9,5,0.9s-3.4,2.5-3.4,4.3c0,1.9,5.7,4.4,5.7,4.4s-1.1,10.5,7.6,9.8
			c8.6-0.7,10.1-3.2,10.1-3.2l2.5,10.6h33.3l-1.2-23.1c0,0,4.9-5.3,9.5-13v-14.1l-3,1.6l-0.7-1.3l0.4-0.2v0c-0.1,0-0.2,0-0.2,0
			c-0.1,0-0.2-0.1-0.3-0.1c-0.1,0-0.2-0.1-0.3-0.2c-0.1-0.1-0.2-0.2-0.3-0.4c-0.1-0.2-0.2-0.5-0.2-0.8c0-0.2,0.1-0.5,0.2-0.7
			c0.1-0.2,0.3-0.4,0.5-0.6c0.2-0.2,0.4-0.3,0.6-0.5c0.2-0.1,0.4-0.2,0.7-0.3c0.2-0.1,0.5-0.1,0.7-0.1c0.2,0,0.5,0.1,0.7,0.2
			c0.2,0.1,0.4,0.3,0.6,0.6c0.1,0.2,0.2,0.4,0.2,0.6c0,0.2,0,0.4-0.1,0.6l0,0l0.6-0.3v-9.9c-0.3,0-0.7,0-1-0.1l-4.9-1.2l2.2-8.6
			L375,551.7z M354,548h-1.8l-0.8-1.5l-0.3,0.3v1.2h-1.5v-5.5h1.5v2.7l1-1.2h1.7l-1.4,1.5L354,548z M349.6,531.3c0,0.1,0,0.1,0,0.2
			c0,0.1,0,0.1,0,0.2h0c0.2-0.2,0.3-0.3,0.6-0.3c0.2-0.1,0.4-0.1,0.7-0.1c0.2,0,0.4,0,0.5,0.1c0.2,0,0.3,0.1,0.4,0.2
			c0.1,0.1,0.2,0.2,0.3,0.4c0.1,0.1,0.1,0.3,0.1,0.5c0,0.2,0,0.4-0.1,0.5c-0.1,0.1-0.2,0.2-0.3,0.3c-0.1,0.1-0.3,0.1-0.4,0.2
			c-0.2,0-0.3,0.1-0.5,0.1c-0.2,0-0.3,0-0.5,0.1c-0.2,0-0.3,0-0.4,0c-0.1,0-0.2,0-0.3,0.1c-0.1,0-0.1,0.1-0.1,0.2
			c0,0.1,0,0.2,0.1,0.3c0.1,0.1,0.2,0.1,0.3,0.1c0.1,0,0.2,0,0.3,0c0.1,0,0.1,0,0.2-0.1c0,0,0.1-0.1,0.1-0.1c0,0,0-0.1,0-0.1l1.3,0
			c0,0.3-0.1,0.5-0.2,0.6c-0.1,0.2-0.3,0.3-0.5,0.4c-0.2,0.1-0.4,0.1-0.6,0.2c-0.2,0-0.5,0-0.7,0c-0.4,0-0.8-0.1-1-0.2
			c-0.2-0.1-0.4-0.2-0.5-0.3c-0.1-0.2-0.2-0.3-0.2-0.5c0-0.2,0-0.3,0-0.5l0-1.6c0-0.1,0-0.3,0-0.4c0-0.1,0-0.3-0.1-0.4L349.6,531.3z
			 M322.2,543.3l1.2,0.7l0.5-0.8l0.9,0.6l-0.5,0.8l1.4,0.8c0.2,0.1,0.3,0.2,0.5,0.2c0.1,0,0.2-0.1,0.4-0.3c0.1-0.1,0.1-0.2,0.2-0.4
			l1.2,0.7c-0.1,0.2-0.2,0.3-0.3,0.5c-0.1,0.2-0.2,0.3-0.3,0.5c-0.1,0.2-0.2,0.3-0.3,0.5c-0.1,0.2-0.3,0.3-0.4,0.3
			c-0.2,0.1-0.3,0.1-0.6,0.1c-0.2,0-0.4-0.1-0.7-0.3l-1.9-1.2l-0.4,0.7l-0.9-0.6l0.4-0.7l-1.2-0.7L322.2,543.3z M324.3,551.7
			l-0.8,1.3l-4.1-1.2l0,0l3.5,2.1l-1,1.6l-5.5-3.3l1.5-2.4l3.7,1.2l0,0l-2.8-2.7l1.5-2.4l5.5,3.3l-1,1.6l-3.5-2.1v0L324.3,551.7z
			 M327.9,559.2l-2.9-1.3l4.8-10.5l2.9,1.3L327.9,559.2z M333.2,543.6c-0.8,0-1.5-0.1-2.1-0.4c-0.6-0.3-1.1-0.6-1.6-1.1
			c-0.4-0.5-0.8-1-1-1.6c-0.2-0.6-0.3-1.3-0.3-2c0-0.8,0.1-1.5,0.3-2.1c0.2-0.6,0.6-1.2,1-1.6c0.4-0.5,1-0.8,1.6-1s1.3-0.4,2.1-0.4
			c1.4,0,2.4,0.3,3.1,1c0.7,0.7,1.2,1.6,1.3,2.9h-2.9c0-0.1,0-0.2-0.1-0.4c0-0.2-0.1-0.3-0.2-0.5c-0.1-0.1-0.3-0.3-0.5-0.4
			s-0.5-0.2-0.8-0.2c-0.4,0-0.7,0.1-0.9,0.2c-0.2,0.1-0.4,0.4-0.6,0.6c-0.1,0.3-0.2,0.5-0.3,0.9c-0.1,0.3-0.1,0.7-0.1,1
			c0,0.3,0,0.7,0.1,1c0.1,0.3,0.2,0.6,0.3,0.9c0.1,0.3,0.3,0.5,0.6,0.6c0.2,0.2,0.5,0.2,0.9,0.2c0.2,0,0.5,0,0.7-0.1
			c0.2-0.1,0.3-0.2,0.5-0.3c0.1-0.2,0.2-0.3,0.3-0.5c0.1-0.2,0.1-0.4,0.2-0.6h3c0,0.5-0.1,1-0.3,1.5c-0.2,0.5-0.5,0.9-0.9,1.3
			s-0.8,0.7-1.4,0.9C334.5,543.5,333.9,543.6,333.2,543.6z M336.2,562l-0.9-1.4l1.8-1.1l0,0c-0.2,0-0.4-0.1-0.6-0.2
			c-0.2-0.1-0.4-0.3-0.6-0.6c-0.1-0.2-0.2-0.4-0.2-0.5c0-0.2,0-0.4,0-0.5c0-0.2,0.1-0.4,0.2-0.5c0.1-0.2,0.3-0.3,0.5-0.4l2.5-1.6
			l0.9,1.4l-1.9,1.2c-0.1,0.1-0.2,0.1-0.3,0.2c-0.1,0.1-0.2,0.1-0.2,0.2c0,0.1-0.1,0.2-0.1,0.2c0,0.1,0,0.2,0.1,0.3
			c0,0.1,0.1,0.1,0.1,0.2c0.1,0.1,0.1,0.1,0.2,0.1c0.1,0,0.2,0,0.3,0c0.1,0,0.2-0.1,0.4-0.2l2-1.2l0.9,1.4L336.2,562z M340,553.4
			l-3.4-3.4l-1.3,1.3l-1.2-1.2l3.9-3.9l1.2,1.1l-1.3,1.3l3.4,3.3L340,553.4z M340.2,543.2c-0.4-0.2-0.7-0.5-0.9-0.9
			c-0.2-0.4-0.4-0.8-0.6-1.2s-0.2-0.9-0.2-1.3c0-0.4,0-0.9,0.1-1.3c0.1-0.4,0.2-0.8,0.5-1.2c0.2-0.4,0.5-0.7,0.9-0.9
			c0.4-0.2,0.9-0.3,1.5-0.3c0.4,0,0.8,0.1,1.1,0.2c0.3,0.2,0.6,0.4,0.8,0.7h0v-3.5h2.7v9.8h-2.6v-0.8h0c-0.1,0.1-0.2,0.2-0.3,0.3
			c-0.1,0.1-0.2,0.2-0.4,0.3c-0.1,0.1-0.3,0.2-0.6,0.2c-0.2,0.1-0.5,0.1-0.8,0.1C341.1,543.5,340.6,543.4,340.2,543.2z M351.6,563.5
			l-0.5-1.9h-4.2l-0.6,1.9h-4l4.8-13.1h3.9l4.8,13.1H351.6z M364.9,565.8l-1,3.4l-1.9-0.6l0.8-2.6c0-0.1,0.1-0.3,0.1-0.4
			c0-0.1,0-0.2,0-0.3c0-0.1-0.1-0.2-0.1-0.3c-0.1-0.1-0.2-0.1-0.3-0.2c-0.1,0-0.2,0-0.3,0c-0.1,0-0.2,0-0.3,0.1
			c-0.1,0-0.2,0.1-0.3,0.2c-0.1,0.1-0.2,0.3-0.2,0.5l-0.8,2.6l-1.9-0.6l2.1-6.8l1.9,0.6l-0.8,2.4l0,0c0.2-0.1,0.5-0.2,0.7-0.3
			c0.3,0,0.6,0,1,0.1c0.2,0.1,0.4,0.2,0.6,0.3c0.2,0.1,0.3,0.3,0.5,0.5c0.1,0.2,0.2,0.4,0.2,0.6C365.1,565.2,365,565.5,364.9,565.8z
			 M363,557.5c0-0.1-0.1-0.2-0.1-0.3c0-0.1,0-0.2,0-0.3h0c-0.3,0.3-0.6,0.5-1,0.6c-0.4,0.1-0.7,0.2-1.1,0.2c-0.3,0-0.6,0-0.9-0.1
			c-0.3-0.1-0.5-0.2-0.7-0.3c-0.2-0.2-0.4-0.4-0.5-0.6c-0.1-0.2-0.2-0.5-0.2-0.9c0-0.3,0.1-0.6,0.2-0.8c0.1-0.2,0.3-0.4,0.5-0.6
			c0.2-0.2,0.4-0.3,0.7-0.4c0.3-0.1,0.5-0.2,0.8-0.2c0.3,0,0.5-0.1,0.8-0.1c0.3,0,0.5-0.1,0.7-0.1c0.2,0,0.3-0.1,0.5-0.2
			c0.1-0.1,0.2-0.2,0.2-0.4c0-0.2-0.1-0.4-0.3-0.5c-0.2-0.1-0.3-0.1-0.6-0.1c-0.2,0-0.3,0-0.5,0.1c-0.1,0-0.2,0.1-0.3,0.2
			c-0.1,0.1-0.1,0.1-0.1,0.2c0,0.1,0,0.2,0,0.2h-2.3c0-0.5,0.1-0.8,0.3-1.1c0.2-0.3,0.5-0.5,0.8-0.6c0.3-0.2,0.7-0.2,1.1-0.3
			c0.4-0.1,0.8-0.1,1.2-0.1c0.8,0,1.4,0.1,1.8,0.2c0.4,0.2,0.7,0.3,0.9,0.6s0.3,0.5,0.3,0.8c0,0.3,0.1,0.6,0.1,0.9v2.7
			c0,0.2,0,0.5,0,0.8c0,0.3,0.1,0.5,0.3,0.7H363z M369.5,563.7c0.4-0.2,0.8-0.3,1.1-0.4c0.4-0.1,0.7,0,1.1,0.1
			c0.3,0.1,0.6,0.2,1,0.5c0.3,0.2,0.5,0.5,0.7,0.9c0.4,0.7,0.5,1.3,0.4,1.8s-0.5,1-1.1,1.4l-0.8-1.5c0,0,0.1-0.1,0.2-0.1
			c0.1-0.1,0.1-0.2,0.2-0.3c0-0.1,0.1-0.2,0.1-0.3c0-0.1,0-0.3-0.1-0.4c-0.1-0.2-0.2-0.3-0.4-0.4c-0.1-0.1-0.3-0.1-0.5-0.1
			c-0.2,0-0.3,0-0.5,0.1c-0.2,0.1-0.3,0.1-0.5,0.2c-0.2,0.1-0.3,0.2-0.5,0.3s-0.3,0.2-0.3,0.4c-0.1,0.1-0.1,0.3-0.2,0.5
			c0,0.2,0,0.3,0.1,0.5c0.1,0.1,0.2,0.2,0.2,0.3c0.1,0.1,0.2,0.1,0.3,0.1c0.1,0,0.2,0,0.3,0c0.1,0,0.2,0,0.4-0.1l0.8,1.5
			c-0.2,0.1-0.5,0.2-0.8,0.3c-0.3,0-0.6,0-0.9-0.1c-0.3-0.1-0.6-0.2-0.9-0.4c-0.3-0.2-0.5-0.5-0.7-0.8c-0.2-0.4-0.3-0.8-0.4-1.2
			c0-0.4,0-0.7,0.1-1.1c0.1-0.3,0.3-0.7,0.5-0.9C368.8,564.2,369.1,563.9,369.5,563.7z M367.3,549.4l-6.9-6.9l-2.6,2.6l-2.4-2.4l8-8
			l2.4,2.4l-2.6,2.6l6.9,6.9L367.3,549.4z"/>
		<path class="st0" d="M373.4,570.4c-0.1,0-0.2-0.1-0.3-0.1c-0.1,0-0.2,0-0.3,0.1c-0.1,0-0.2,0.1-0.3,0.2c-0.1,0.1-0.2,0.1-0.3,0.2
			c-0.1,0.1-0.2,0.2-0.2,0.2c-0.1,0.1-0.1,0.2-0.1,0.3c0,0.1,0,0.2,0.1,0.3c0.1,0.1,0.1,0.2,0.2,0.2c0.1,0,0.2,0.1,0.3,0.1
			c0.1,0,0.2,0,0.3-0.1c0.1,0,0.2-0.1,0.3-0.1c0.1-0.1,0.2-0.1,0.3-0.2c0.1-0.1,0.2-0.2,0.2-0.2c0.1-0.1,0.1-0.2,0.1-0.3
			c0-0.1,0-0.2-0.1-0.3C373.5,570.6,373.5,570.5,373.4,570.4z"/>
		<path class="st0" d="M375.1,557.9c0,0.1,0,0.2-0.1,0.2c0,0.1-0.1,0.1-0.1,0.2c-0.1,0.1-0.2,0.1-0.3,0.2c-0.1,0-0.2,0-0.4,0
			c-0.1,0-0.3,0-0.4-0.1l-1.5-0.4l0.4-1.6l1.7,0.4c0.3,0.1,0.5,0.2,0.7,0.4C375.1,557.4,375.1,557.6,375.1,557.9z"/>
		<path class="st0" d="M375,553.9v1.3c-0.1,0-0.3,0-0.5,0l-1.4-0.3l0.3-1.3l1.4,0.4C374.9,553.9,374.9,553.9,375,553.9z"/>
		<path class="st0" d="M350.2,532.9c0.2,0,0.3-0.1,0.4-0.1c0.1,0,0.1-0.1,0.1-0.3c0-0.1,0-0.2-0.1-0.2c-0.1-0.1-0.2-0.1-0.3-0.1
			c-0.2,0-0.3,0-0.4,0.1c-0.1,0.1-0.2,0.2-0.2,0.4l0,0.3c0.1,0,0.2-0.1,0.3-0.1C350,532.9,350.1,532.9,350.2,532.9z"/>
		<path class="st0" d="M343.1,541.4c0.1-0.1,0.3-0.2,0.4-0.4s0.2-0.4,0.2-0.6c0-0.2,0-0.4,0-0.6c0-0.2,0-0.4,0-0.6
			c0-0.2-0.1-0.4-0.2-0.6c-0.1-0.2-0.2-0.3-0.4-0.4c-0.2-0.1-0.4-0.2-0.6-0.2c-0.2,0-0.4,0.1-0.6,0.2c-0.2,0.1-0.3,0.2-0.4,0.4
			c-0.1,0.2-0.2,0.4-0.2,0.6c0,0.2-0.1,0.4-0.1,0.6c0,0.2,0,0.4,0.1,0.6c0,0.2,0.1,0.4,0.2,0.6c0.1,0.2,0.2,0.3,0.4,0.4
			c0.1,0.1,0.3,0.2,0.6,0.2C342.7,541.6,342.9,541.5,343.1,541.4z"/>
		<polygon class="st0" points="349,554.9 347.8,558.9 350.3,558.9 349.1,554.9 		"/>
		<path class="st0" d="M361.9,556.2c0.3,0,0.5-0.1,0.7-0.2c0.2-0.2,0.3-0.4,0.3-0.8v-0.6c-0.2,0.1-0.3,0.1-0.5,0.2
			c-0.2,0-0.3,0.1-0.5,0.1c-0.3,0.1-0.5,0.1-0.6,0.2c-0.1,0.1-0.2,0.2-0.2,0.5c0,0.1,0.1,0.3,0.2,0.4
			C361.4,556.2,361.6,556.2,361.9,556.2z"/>
	</g>
</g>
</svg>
